<?xml version="1.0" standalone="no"?>
<!DOCTYPE svg PUBLIC "-//W3C//DTD SVG 1.1//EN" "http://www.w3.org/Graphics/SVG/1.1/DTD/svg11.dtd">
<svg xmlns="http://www.w3.org/2000/svg">
<metadata>Generated by Fontastic.me</metadata>
<defs>
<font id="droplet-icons" horiz-adv-x="512">
<font-face font-family="droplet-icons" units-per-em="512" ascent="480" descent="-32"/>
<missing-glyph horiz-adv-x="512" />

<glyph glyph-name="layers" unicode="&#104;" d="M500 345l-235-128c-3-2-6-3-10-3-3 0-7 1-10 3l-234 128c-7 3-11 11-11 18 0 8 4 15 11 19l234 128c6 3 14 3 20 0l235-128c7-4 11-11 11-19 0-7-4-15-11-18z m-245 122l-190-104 190-103 190 103z m-224-192c9 6 23 4 29-6 4-7 5-15 1-22l194-94 194 94c-3 7-3 15 1 22 7 9 20 12 30 6l21-14c7-5 10-12 10-20-1-7-5-14-12-17l-234-114c-3-1-7-2-10-2-3 0-6 1-9 2l-234 114c-7 3-12 10-12 17-1 8 3 15 9 20z m0-107c9 7 23 4 29-6 4-7 5-15 1-21l194-95 194 95c-3 6-3 14 1 21 7 10 20 13 30 6l21-14c7-4 10-11 10-19-1-8-5-14-12-18l-234-114c-3-1-7-2-10-2-3 0-6 1-9 2l-234 114c-7 4-12 10-12 18-1 8 3 15 9 19z"/>
<glyph glyph-name="scissors" unicode="&#113;" d="M405 3c-34 0-64 20-77 49 0 0 0 1-1 1l-71 140-71-140c-1 0-1 0-1-1-13-29-43-49-77-49-47 0-86 38-86 84 0 47 39 85 86 85 29 0 56-15 71-38l54 106-123 241c-5 11-1 23 9 29 11 5 24 1 29-10l109-213 109 213c5 11 18 15 29 10 10-6 14-18 9-29l-123-241 54-106c15 23 42 38 71 38 47 0 86-38 86-85 0-46-39-84-86-84z m-298 127c-24 0-43-19-43-43 0-23 19-42 43-42 23 0 42 19 42 42 0 24-19 43-42 43z m298 0c-23 0-42-19-42-43 0-23 19-42 42-42 24 0 43 19 43 42 0 24-19 43-43 43z"/>
<glyph glyph-name="call" unicode="&#115;" d="M486 298c-11 0-21 9-21 21 0 80-66 146-148 146-12 0-21 9-21 21 0 11 9 20 21 20 105 0 190-84 190-187 0-12-9-21-21-21z m-42 0c0-12-9-21-21-21-12 0-21 9-21 21 0 57-48 104-106 104-12 0-21 9-21 21 0 11 9 21 21 21 82 0 148-66 148-146z m-270 4l126-125 71 35c8 4 17 3 23-3l106-90c4-4 7-9 7-14 1-6-1-11-5-16l-61-68c-8-8-20-16-39-16-55 0-154 62-248 155-102 100-189 231-140 279l70 62c5 4 10 6 16 5 6 0 11-3 15-7l91-104c6-7 7-16 3-23z m-77 154l-53-47c-12-11 20-101 140-220 93-92 182-142 218-142 4 0 7 1 8 2l46 52-79 67-72-35c-8-4-18-3-24 4l-148 146c-7 6-8 16-4 24l36 71z"/>
<glyph glyph-name="comment-circle" unicode="&#117;" d="M256 85l-31 0c-41-60-135-64-139-64 0 0 0 0-1 0-8 0-15 5-19 12-3 8-2 16 3 23 0 0 30 39 36 79-53 27-105 83-105 154 0 111 115 202 256 202 141 0 256-91 256-202 0-112-115-204-256-204z m0 363c-118 0-213-71-213-159 0-55 46-102 93-121 8-3 13-11 13-19 0-29-10-56-21-78 25 7 53 20 66 45 4 8 11 12 19 12l43 0c118 0 213 72 213 161 0 88-95 159-213 159z m107-149l-214 0c-11 0-21 9-21 21 0 12 10 21 21 21l214 0c11 0 21-9 21-21 0-12-10-21-21-21z m-214-22l150 0c11 0 21-9 21-21 0-12-10-21-21-21l-150 0c-11 0-21 9-21 21 0 12 10 21 21 21z"/>
<glyph glyph-name="comment-square" unicode="&#120;" d="M469 128l-267 0-79-99c-4-5-10-8-16-8-3 0-5 1-7 2-9 3-15 11-15 20l0 85-42 0c-24 0-43 19-43 43l0 277c0 24 19 43 43 43l426 0c24 0 43-19 43-43l0-277c0-24-19-43-43-43z m0 320l-426 0 0-277 64 0c11 0 21-10 21-22l0-46 47 60c1 0 1 0 1 0 1 2 2 2 4 3 1 1 2 2 3 2 1 1 2 1 3 2 2 0 3 0 5 0 0 0 1 1 1 1l277 0z m-362-171c0 12 9 22 21 22l171 0c11 0 21-10 21-22 0-11-10-21-21-21l-171 0c-12 0-21 10-21 21z m0 64c0 12 9 22 21 22l256 0c12 0 21-10 21-22 0-11-9-21-21-21l-256 0c-12 0-21 10-21 21z"/>
<glyph glyph-name="paper-plane" unicode="&#122;" d="M508 499c0-1 0-2 0-3 1-1 1-3 1-5 0-1 0-1 0-2 0-2 0-4-1-6 0 0 0-1 0-1-1-1-1-1-1-1l-223-467c-4-8-11-13-19-13 0 0 0 0 0 0-9 1-16 5-20 13l-75 169-159 87c-7 4-12 12-11 20 0 8 5 15 13 19l467 201c0 0 0 0 0 0 1 0 1 0 2 0 2 1 4 1 6 1 0 0 1 0 2 0 2 0 3 0 5-1 1 0 2 0 2-1 2-1 5-2 6-4 0 0 0 0 1 0 0 0 0 0 0 0 0 0 0 0 0 0 1-2 3-4 4-6z m-243-426l153 320-206-200z m-82 151l207 201-321-138z"/>
<glyph glyph-name="comments-circle" unicode="&#65;" d="M437 106c6-31 23-45 24-46 7-5 10-14 7-22-2-9-9-15-17-16-1 0-6-1-13-1-22 0-67 6-102 43l-27 0c-38 0-75 9-105 24-11 5-15 18-10 29 6 10 18 14 29 9 25-12 54-19 86-19l37 0c0 0 0 0 1 0 1 0 3-1 4-1 2 0 3-1 4-1 1-1 2-2 3-2 1-1 3-2 3-3 1-1 1-1 2-1 12-16 27-25 41-30-5 12-9 27-10 44 0 1 0 1 0 1-1 1-1 1-1 1 0 1 1 2 1 3 0 2 0 3 0 5 1 1 1 2 2 3 1 2 1 3 2 4 1 1 2 2 3 3 1 1 2 1 3 2 24 15 65 47 65 100 0 26-14 54-33 68-10 6-12 20-6 29 7 10 20 12 30 6 31-22 52-63 52-103 0-50-27-96-75-129z m-234 44l-27 0c-35-38-80-43-102-43-7 0-12 0-13 0-8 1-16 8-18 16-2 9 1 18 9 23 0 0 17 14 23 46-48 32-75 79-75 128 0 94 91 171 203 171 111 0 202-77 202-171 0-94-91-170-202-170z m0 298c-89 0-160-57-160-128 0-52 41-85 65-100 1 0 2-1 3-2 1-1 2-2 3-3 1-1 1-2 2-3 1-2 1-3 2-4 0-1 0-3 0-4 0-1 1-2 1-3 0-1-1-1-1-2 0 0 0 0 0-1-1-17-5-31-10-43 14 4 29 13 41 29 1 0 1 1 2 1 0 1 2 2 3 3 1 1 2 1 3 2 1 1 2 1 4 1 1 1 3 1 4 1 1 0 1 0 1 0l37 0c88 0 160 58 160 128 0 71-72 128-160 128z m72-128l-128 0c-12 0-22 10-22 21 0 12 10 22 22 22l128 0c11 0 21-10 21-22 0-11-10-21-21-21z m-128-21l85 0c12 0 21-10 21-22 0-11-9-21-21-21l-85 0c-12 0-22 10-22 21 0 12 10 22 22 22z"/>
<glyph glyph-name="comments-square" unicode="&#66;" d="M469 85l-42 0 0-64c0-8-6-16-13-19-3-1-6-2-9-2-5 0-11 2-15 6l-79 79-76 0c-24 0-43 19-43 43l0 21c0 12 10 22 21 22 12 0 22-10 22-22l0-21 85 0c3 0 6-1 8-2 3-1 5-2 7-4l49-49 0 34c0 11 10 21 21 21l64 0 0 171-21 0c-12 0-21 9-21 21 0 12 9 21 21 21l21 0c24 0 43-19 43-42l0-171c0-24-19-43-43-43z m-128 128l-140 0-79-79c-4-4-10-6-15-6-3 0-6 1-9 2-7 3-13 11-13 19l0 64-42 0c-24 0-43 19-43 43l0 213c0 24 19 43 43 43l298 0c24 0 43-19 43-43l0-213c0-24-19-43-43-43z m0 256l-298 0 0-213 64 0c11 0 21-10 21-21l0-34 49 49c2 2 4 3 7 4 2 1 5 2 8 2l149 0z m-256-149c0 12 10 21 22 21l106 0c12 0 22-9 22-21 0-12-10-21-22-21l-106 0c-12 0-22 9-22 21z m0 85c0 12 10 22 22 22l170 0c12 0 22-10 22-22 0-11-10-21-22-21l-170 0c-12 0-22 10-22 21z"/>
<glyph glyph-name="phone" unicode="&#67;" d="M404 0c-54 0-153 63-246 158-53 54-98 112-125 162-32 58-36 100-13 123l69 63c5 4 10 6 16 6 5-1 10-3 14-8l91-106c6-7 7-16 3-24l-35-71 125-128 71 36c7 4 16 3 23-3l105-92c4-4 7-9 7-15 0-5-2-11-5-15l-61-70c-8-8-19-16-39-16z m-354 414c-4-5-6-26 20-74 25-46 67-100 118-152 93-94 181-145 216-145 5 0 7 1 8 1l46 54-78 68-71-36c-9-4-18-2-25 4l-147 149c-6 7-8 17-4 25l36 73-68 79z"/>
<glyph glyph-name="email" unicode="&#69;" d="M448 64l-384 0c-35 0-64 29-64 64l0 256c0 35 29 64 64 64l384 0c35 0 64-29 64-64l0-256c0-35-29-64-64-64z m-384 43l384 0c12 0 21 9 21 21l0 252-200-162c-4-3-8-5-13-5-5 0-9 2-13 5l-200 162 0-252c0-12 9-21 21-21z m369 298l-354 0 177-143z"/>
<glyph glyph-name="arrow-sqare-down" unicode="&#70;" d="M491 0l-470 0c-11 0-21 10-21 21l0 470c0 11 10 21 21 21l470 0c11 0 21-10 21-21l0-470c0-11-10-21-21-21z m-22 469l-426 0 0-426 426 0z m-262-241l28-27 0 162c0 11 9 21 21 21 12 0 21-10 21-21l0-162 28 27c8 9 22 9 30 0 8-8 8-21 0-30l-64-64c0 0 0 0 0 0-2-2-4-3-7-4-2-1-5-2-8-2-3 0-6 1-8 2-3 1-5 2-7 4 0 0 0 0 0 0l-64 64c-8 9-8 22 0 30 8 9 22 9 30 0z"/>
<glyph glyph-name="angle-right" unicode="&#71;" d="M128 2c-5 0-11 2-15 7-8 8-8 22 1 30l237 218-237 218c-9 8-9 21-1 30 8 8 21 9 30 1l254-234c4-4 7-9 7-15 0-6-3-12-7-16l-254-234c-4-3-10-5-15-5z"/>
<glyph glyph-name="angle-left" unicode="&#72;" d="M382 2c-5 0-10 2-14 6l-254 233c-5 4-7 10-7 16 0 6 2 11 7 15l254 234c9 8 22 7 30-1 8-9 7-22-1-30l-238-218 238-218c8-8 9-22 1-30-4-5-10-7-16-7z"/>
<glyph glyph-name="arrow-right" unicode="&#73;" d="M509 265c2-5 2-11 0-16-1-3-3-5-5-7 0 0 0 0 0 0l-127-127c-5-4-10-6-15-6-6 0-11 2-15 6-9 8-9 22 0 30l91 91-416 0c-12 0-22 9-22 21 0 12 10 21 22 21l416 0-91 91c-9 9-9 22 0 30 8 9 21 9 30 0l127-127c0 0 0 0 0 0 2-2 4-4 5-7z"/>
<glyph glyph-name="arrow-left" unicode="&#74;" d="M489 236l-417 0 92-91c8-8 8-22 0-30-5-4-10-6-15-6-6 0-11 2-16 6l-127 127c0 0 0 0 0 0-2 2-4 4-5 7-2 5-2 11 0 16 1 3 3 5 5 7 0 0 0 0 0 0l127 127c9 9 22 9 31 0 8-8 8-21 0-30l-92-91 417 0c11 0 21-9 21-21 0-12-10-21-21-21z"/>
<glyph glyph-name="angle-down" unicode="&#75;" d="M254 108c-6 0-11 3-15 7l-233 255c-8 8-7 22 1 29 9 8 22 8 30-1l217-237 217 237c8 9 22 9 30 1 9-7 10-21 2-29l-233-255c-4-4-10-7-16-7z"/>
<glyph glyph-name="angle-circle-up" unicode="&#76;" d="M256 0c-141 0-256 115-256 256 0 141 115 256 256 256 141 0 256-115 256-256 0-141-115-256-256-256z m0 469c-118 0-213-95-213-213 0-118 95-213 213-213 118 0 213 95 213 213 0 118-95 213-213 213z m85-277c-5 0-11 2-15 6l-70 70-70-70c-9-8-22-8-30 0-9 9-9 22 0 30l85 86c8 8 22 8 30 0l85-86c9-8 9-21 0-30-4-4-9-6-15-6z"/>
<glyph glyph-name="arrow-down" unicode="&#77;" d="M395 134l-118-120c-4-8-14-14-23-14-6 0-11 2-15 6l-126 128c-9 9-9 22 0 30 8 9 21 9 29 0l94-94 0 421c0 11 6 21 18 21 12 0 25-10 25-21l0-414 86 87c9 9 22 9 30 0 8-8 8-21 0-30z"/>
<glyph glyph-name="arrow-circle-up" unicode="&#78;" d="M256 0c-141 0-256 115-256 256 0 141 115 256 256 256 141 0 256-115 256-256 0-141-115-256-256-256z m0 469c-118 0-213-95-213-213 0-118 95-213 213-213 118 0 213 95 213 213 0 118-95 213-213 213z m64-192c-5 0-11 2-15 7l-28 27 0-162c0-11-9-21-21-21-12 0-21 10-21 21l0 162-28-27c-8-9-22-9-30 0-8 8-8 21 0 30l64 64c2 2 4 3 7 4 5 3 11 3 16 0 3-1 5-2 7-4l64-64c8-9 8-22 0-30-4-5-10-7-15-7z"/>
<glyph glyph-name="angle-circle-right" unicode="&#79;" d="M256 0c-141 0-256 115-256 256 0 141 115 256 256 256 141 0 256-115 256-256 0-141-115-256-256-256z m0 469c-118 0-213-95-213-213 0-118 95-213 213-213 118 0 213 95 213 213 0 118-95 213-213 213z m-28-313c-4-5-9-7-15-7-5 0-11 2-15 7-8 8-8 21 0 30l71 70-71 70c-8 9-8 22 0 30 9 9 22 9 30 0l86-85c8-8 8-22 0-30z"/>
<glyph glyph-name="angle-circle-left" unicode="&#80;" d="M256 0c-141 0-256 115-256 256 0 141 115 256 256 256 141 0 256-115 256-256 0-141-115-256-256-256z m0 469c-118 0-213-95-213-213 0-118 95-213 213-213 118 0 213 95 213 213 0 118-95 213-213 213z m58-313c-4-5-10-7-15-7-6 0-11 2-15 7l-86 85c-8 8-8 22 0 30l86 85c8 9 21 9 30 0 8-8 8-21 0-30l-70-70 70-70c8-9 8-22 0-30z"/>
<glyph glyph-name="arrow-circle-right" unicode="&#81;" d="M256 0c-141 0-256 115-256 256 0 141 115 256 256 256 141 0 256-115 256-256 0-141-115-256-256-256z m0 469c-118 0-213-95-213-213 0-118 95-213 213-213 118 0 213 95 213 213 0 118-95 213-213 213z m128-213c0 0 0 0 0 0 0-3-1-6-2-8-1-3-2-5-4-7l-64-64c-4-4-10-6-15-6-6 0-11 2-15 6-9 8-9 22 0 30l27 28-162 0c-11 0-21 9-21 21 0 12 10 21 21 21l162 0-27 28c-9 8-9 22 0 30 8 8 21 8 30 0l64-64c2-2 3-4 4-7 1-2 2-5 2-8z"/>
<glyph glyph-name="angle-circle-down" unicode="&#82;" d="M256 0c-141 0-256 115-256 256 0 141 115 256 256 256 141 0 256-115 256-256 0-141-115-256-256-256z m0 469c-118 0-213-95-213-213 0-118 95-213 213-213 118 0 213 95 213 213 0 118-95 213-213 213z m15-271c-4-4-10-6-15-6-5 0-11 2-15 6l-85 86c-9 8-9 21 0 30 8 8 21 8 30 0l70-71 70 71c9 8 22 8 30 0 9-9 9-22 0-30z"/>
<glyph glyph-name="replay-double" unicode="&#83;" d="M508 263l-150-152c-4-4-10-6-15-6-6 0-11 2-15 6-9 9-9 22 0 31l134 136-134 137c-9 8-9 22 0 30 8 9 22 9 30 0l150-151c8-9 8-23 0-31z m-107 0l-150-152c-4-4-10-6-15-6-3 0-6 0-8 2-8 3-13 10-13 19l0 66c-62 1-109-12-138-40-33-30-34-67-34-69 0-12-9-21-21-21 0 0 0 0 0 0-12 0-21 8-22 20-8 138 57 208 112 242 40 25 80 35 103 39l0 68c0 9 5 16 13 19 8 4 17 2 23-5l150-151c8-9 8-23 0-31z m-144 115l0-35c0-1 0-2-1-3 0-2 0-3 0-4-1-2-2-3-2-4-1-1-2-2-3-3-1-1-2-2-3-3-1-1-2-2-3-2-2-1-3-1-4-1-2-1-3-1-4-1-7-1-137-11-180-130 41 33 102 48 180 43 1 0 2-1 4-1 1 0 2 0 4-1 1-1 2-2 3-2 1-1 2-2 3-3 1-1 2-2 2-3 1-1 2-3 3-4 0-1 0-3 0-4 1-1 1-2 1-4l0-34 98 99z"/>
<glyph glyph-name="reply" unicode="&#84;" d="M499 272l-211-171c-4-3-9-4-13-4-3 0-6 0-9 2-8 3-12 11-12 19l0 86c-80-3-138-23-174-61-39-40-38-86-37-88 0-12-9-21-20-22-1 0-1 0-2 0-11 0-20 9-21 20-5 101 19 180 72 236 61 64 143 78 182 81l0 88c0 9 4 16 12 20 7 3 16 2 22-3l211-170c5-4 8-10 8-17 0-6-3-12-8-16z m-203 142l0-64c0 0 0 0 0 0 0 0 0 0 0 0 0-1-1-2-1-3 0-2 0-4-1-6 0 0 0 0 0 0-2-5-7-9-12-11 0 0 0 0 0 0-3-1-5-1-7-1 0 0 0 0 0 0-1 0-1 0-1 0-1 0-104 1-172-70-21-22-36-49-46-80 47 46 121 69 219 69 11 0 21-10 21-22l0-64 156 126z"/>
<glyph glyph-name="arrow-sqare-right" unicode="&#85;" d="M491 0l-470 0c-11 0-21 10-21 21l0 470c0 11 10 21 21 21l470 0c11 0 21-10 21-21l0-470c0-11-10-21-21-21z m-22 469l-426 0 0-426 426 0z m-320-192l162 0-27 28c-9 8-9 22 0 30 8 8 21 8 30 0l64-64c2-2 3-4 4-7 1-2 2-5 2-8 0 0 0 0 0 0 0-3-1-6-2-8-1-3-2-5-4-7l-64-64c-4-4-10-6-15-6-6 0-11 2-15 6-9 8-9 22 0 30l27 28-162 0c-11 0-21 9-21 21 0 12 10 21 21 21z"/>
<glyph glyph-name="angle-square-right" unicode="&#86;" d="M491 0l-470 0c-11 0-21 10-21 21l0 470c0 11 10 21 21 21l470 0c11 0 21-10 21-21l0-470c0-11-10-21-21-21z m-22 469l-426 0 0-426 426 0z m-271-113c9 9 22 9 30 0l86-85c8-8 8-22 0-30l-86-85c-4-5-9-7-15-7-5 0-11 2-15 7-8 8-8 21 0 30l71 70-71 70c-8 9-8 22 0 30z"/>
<glyph glyph-name="double-angle-left" unicode="&#88;" d="M223 257l238-218c8-8 9-22 1-30-4-5-10-7-16-7-5 0-10 2-14 5l-255 234c-4 4-7 10-7 16 0 6 3 11 7 15l255 234c8 8 22 7 30-1 8-9 7-22-1-30z m-128 0l238-218c9-8 9-22 1-30-4-5-9-7-15-7-5 0-10 2-15 5l-254 234c-5 4-7 10-7 16 0 6 2 11 7 15l254 234c9 8 23 7 30-1 8-9 8-22-1-30z"/>
<glyph glyph-name="arrow-up" unicode="&#89;" d="M395 348c-4-4-9-6-14-6-6 0-11 2-15 6l-91 91 0-416c0-12-9-21-21-21-12 0-18 9-18 21l0 419-93-94c-9-8-22-8-30 0-8 8-8 22 0 30l126 128c2 1 4 3 6 4 3 1 6 2 9 2 6 0 11-2 15-6 0 0 0 0 0 0l126-128c9-8 9-22 0-30z"/>
<glyph glyph-name="arrow-circle-left" unicode="&#90;" d="M256 0c-141 0-256 115-256 256 0 141 115 256 256 256 141 0 256-115 256-256 0-141-115-256-256-256z m0 469c-118 0-213-95-213-213 0-118 95-213 213-213 118 0 213 95 213 213 0 118-95 213-213 213z m107-234l-162 0 27-28c9-8 9-22 0-30-4-4-9-6-15-6-5 0-11 2-15 6l-64 64c-2 2-3 4-4 7-1 2-2 5-2 8 0 0 0 0 0 0 0 3 1 6 2 8 1 3 2 5 4 7l64 64c9 8 22 8 30 0 9-8 9-22 0-30l-27-28 162 0c11 0 21-9 21-21 0-12-10-21-21-21z"/>
<glyph glyph-name="angle-square-down" unicode="&#48;" d="M491 0l-470 0c-11 0-21 10-21 21l0 470c0 11 10 21 21 21l470 0c11 0 21-10 21-21l0-470c0-11-10-21-21-21z m-22 469l-426 0 0-426 426 0z m-283-155l70-71 70 71c9 8 22 8 30 0 9-9 9-22 0-30l-85-86c-4-4-10-6-15-6-5 0-11 2-15 6l-85 86c-9 8-9 21 0 30 8 8 21 8 30 0z"/>
<glyph glyph-name="angle-square-left" unicode="&#49;" d="M491 0l-470 0c-11 0-21 10-21 21l0 470c0 11 10 21 21 21l470 0c11 0 21-10 21-21l0-470c0-11-10-21-21-21z m-22 469l-426 0 0-426 426 0z m-185-113c8 9 21 9 30 0 8-8 8-21 0-30l-70-70 70-70c8-9 8-22 0-30-4-5-10-7-15-7-6 0-11 2-15 7l-86 85c-8 8-8 22 0 30z"/>
<glyph glyph-name="angle-square-up" unicode="&#50;" d="M491 0l-470 0c-11 0-21 10-21 21l0 470c0 11 10 21 21 21l470 0c11 0 21-10 21-21l0-470c0-11-10-21-21-21z m-22 469l-426 0 0-426 426 0z m-228-155c8 8 22 8 30 0l85-86c9-8 9-21 0-30-4-4-9-6-15-6-5 0-11 2-15 6l-70 70-70-70c-9-8-22-8-30 0-9 9-9 22 0 30z"/>
<glyph glyph-name="arrow-circle-down" unicode="&#87;" d="M256 0c-141 0-256 115-256 256 0 141 115 256 256 256 141 0 256-115 256-256 0-141-115-256-256-256z m0 469c-118 0-213-95-213-213 0-118 95-213 213-213 118 0 213 95 213 213 0 118-95 213-213 213z m15-335c0 0 0 0 0 0-2-2-4-3-7-4-2-1-5-2-8-2-3 0-6 1-8 2-3 1-5 2-7 4 0 0 0 0 0 0l-64 64c-8 9-8 22 0 30 8 9 22 9 30 0l28-27 0 162c0 11 9 21 21 21 12 0 21-10 21-21l0-162 28 27c8 9 22 9 30 0 8-8 8-21 0-30z"/>
<glyph glyph-name="angle-up" unicode="&#51;" d="M487 111c-6 0-11 2-15 7l-218 236-217-236c-8-9-21-9-30-2-8 8-9 22-1 30l233 253c8 9 23 9 31 0l233-253c8-8 7-22-2-30-4-3-9-5-14-5z"/>
<glyph glyph-name="double-angle-right" unicode="&#52;" d="M461 241l-255-234c-4-3-9-5-14-5-6 0-12 2-16 7-8 8-7 22 1 30l238 218-238 218c-8 8-9 21-1 30 8 8 21 9 30 1l255-234c4-4 7-9 7-15 0-6-3-12-7-16z m-121 16c0-6-2-12-7-16l-254-234c-4-3-9-5-15-5-5 0-11 2-15 7-8 8-8 22 1 30l238 218-238 218c-9 8-9 21-1 30 8 8 21 9 30 1l254-234c5-4 7-9 7-15z"/>
<glyph glyph-name="arrow-sqare-up" unicode="&#53;" d="M491 0l-470 0c-11 0-21 10-21 21l0 470c0 11 10 21 21 21l470 0c11 0 21-10 21-21l0-470c0-11-10-21-21-21z m-22 469l-426 0 0-426 426 0z m-228-91c2 2 4 3 7 4 5 3 11 3 16 0 3-1 5-2 7-4l64-64c8-9 8-22 0-30-4-5-10-7-15-7-5 0-11 2-15 7l-28 27 0-162c0-11-9-21-21-21-12 0-21 10-21 21l0 162-28-27c-8-9-22-9-30 0-8 8-8 21 0 30z"/>
<glyph glyph-name="arrow-sqare-left" unicode="&#54;" d="M491 0l-470 0c-11 0-21 10-21 21l0 470c0 11 10 21 21 21l470 0c11 0 21-10 21-21l0-470c0-11-10-21-21-21z m-22 469l-426 0 0-426 426 0z m-339-205c1 3 2 5 4 7l64 64c9 8 22 8 30 0 9-8 9-22 0-30l-27-28 162 0c11 0 21-9 21-21 0-12-10-21-21-21l-162 0 27-28c9-8 9-22 0-30-4-4-9-6-15-6-5 0-11 2-15 6l-64 64c-2 2-3 4-4 7-1 2-2 5-2 8 0 0 0 0 0 0 0 3 1 6 2 8z"/>
<glyph glyph-name="inbox-empty" unicode="&#39;" d="M466 43l-423 0c-24 0-43 19-43 42l0 171c0 1 1 2 1 2 0 1 0 2 0 3l42 192c2 9 11 16 21 16l381 0c10 0 19-7 21-16l42-192c0-1 0-2 0-3 0 0 1-1 1-2l0-171c0-23-19-42-43-42z m-38 384l-347 0-33-150 122 0c11 0 21-9 21-21 0-35 28-64 63-64 35 0 64 29 64 64 0 12 9 21 21 21l122 0z m41-192l-111 0c-10-49-52-86-104-86-51 0-93 37-103 86l-109 0 0-150 427 0z"/>
<glyph glyph-name="speaker" unicode="&#41;" d="M512 278c0-47-38-85-85-85l0-85c0-8-4-15-11-18-3-2-7-3-11-3-3 0-7 1-10 3l-145 82-122 0 0-107c0-11-10-21-21-21-12 0-22 10-22 21l0 107-42 0c-24 0-43 19-43 42l0 128c0 24 19 43 43 43l207 0 145 82c6 4 14 4 21 0 7-4 11-11 11-18l0-86c47 0 85-38 85-85z m-427 64l-42 0 0-128 42 0z m299 70l-117-67c-4-2-8-3-12-2 0 0-1-1-2-1 0 0 0 0 0 0l-125 0 0-128 128 0c0 0 1 0 1 0 2 0 3 0 4-1 2 0 3 0 4-1 1 0 1 0 2 0l117-67z m43-91l0-85c23 0 42 19 42 42 0 24-19 43-42 43z"/>
<glyph glyph-name="old-telephone" unicode="&#62;" d="M491 32l-470 0c-11 0-21 10-21 21l0 46c0 65 54 189 256 189 202 0 256-124 256-189l0-46c0-11-10-21-21-21z m-22 67c0 51-44 146-213 146-169 0-213-95-213-146l0-24 426 0z m-213 125c61 0 107-28 107-64 0-36-46-64-107-64-61 0-107 28-107 64 0 36 46 64 107 64z m0-85c41 0 64 16 64 21 0 5-23 21-64 21-41 0-64-16-64-21 0-5 23-21 64-21z m240 145c-2-10-11-17-21-17-1 0-2 0-3 0l-110 17c-8 1-15 8-17 16l-12 52-154 0-12-52c-2-8-9-15-17-16l-110-17c-11-2-22 6-24 17l-16 85c0 2 0 3 0 4 0 67 131 107 257 107 126 0 255-40 255-107 0-1 0-2 0-4z m-239 153c-130 0-211-42-214-62l11-63 75 12 12 54c3 10 11 17 21 17l188 0c10 0 18-7 21-17l12-54 75-12 11 63c-3 22-85 62-212 62z"/>
<glyph glyph-name="printer" unicode="&#64;" d="M469 85l-42 0 0-64c0-11-10-21-22-21l-298 0c-12 0-22 10-22 21l0 64-42 0c-24 0-43 19-43 43l0 213c0 24 19 43 43 43l42 0 0 107c0 11 10 21 22 21l298 0c12 0 22-10 22-21l0-107 42 0c24 0 43-19 43-43l0-213c0-24-19-43-43-43z m-341-42l256 0 0 149-256 0z m256 426l-256 0 0-85 256 0z m85-128l-426 0 0-213 42 0 0 85c0 12 10 22 22 22l298 0c12 0 22-10 22-22l0-85 42 0z m-64-64c-11 0-21 10-21 22 0 11 10 21 21 21l22 0c11 0 21-10 21-21 0-12-10-22-21-22z"/>
<glyph glyph-name="mouse" unicode="&#57345;" d="M256 0c-82 0-149 66-149 146l0 220c0 80 67 146 149 146 82 0 149-66 149-146l0-220c0-80-67-146-149-146z m107 366c0 57-48 103-107 103-59 0-107-46-107-103l0-220c0-57 48-103 107-103 59 0 107 46 107 103z m-107-67c-12 0-21 9-21 21l0 64c0 12 9 21 21 21 12 0 21-9 21-21l0-64c0-12-9-21-21-21z"/>
<glyph glyph-name="imac" unicode="&#57351;" d="M467 117l-141 0 11-42 5 0c12 0 21-10 21-22 0-11-9-21-21-21l-171 0c-11 0-21 10-21 21 0 12 10 22 21 22l4 0 11 42-141 0c-25 0-45 21-45 46l0 272c0 25 20 45 45 45l422 0c25 0 45-20 45-45l0-272c0-25-20-46-45-46z m-174-42l-11 42-52 0-11-42z m176 360c0 1-1 2-2 2l-422 0c-1 0-2-1-2-2l0-211 426 0z m0-254l-426 0 0-18c0-2 1-3 2-3l422 0c1 0 2 1 2 3z"/>
<glyph glyph-name="shopping-bag" unicode="&#57358;" d="M427 0l-342 0c-23 0-42 19-42 43l0 341c0 24 19 43 42 43l86 0 0 21c0 35 28 64 64 64l42 0c36 0 64-29 64-64l0-21 86 0c23 0 42-19 42-43l0-341c0-24-19-43-42-43z m-128 448c0 12-10 21-22 21l-42 0c-12 0-22-9-22-21l0-21 86 0z m42-64l0-21c0-12-9-22-21-22-12 0-21 10-21 22l0 21-86 0 0-21c0-12-9-22-21-22-12 0-21 10-21 22l0 21-86 0 0-341 342 0 0 341z"/>
<glyph glyph-name="cart-loaded" unicode="&#57364;" d="M510 335l-64-213c-3-9-11-15-21-15l-199 0c0 0 0 0 0 0-3 0-5 0-8 1 0 1-1 1-2 1-1 1-3 2-4 3-1 1-1 2-2 2-1 1-2 3-3 4 0 1-1 2-1 3 0 0 0 1-1 1l-87 322c-3 13-19 25-33 25l-64 0c-12 0-21 10-21 22 0 11 9 21 21 21l64 0c33 0 66-25 74-57l25-92 41 0 100 100c9 8 22 8 31 0l100-100 34 0c6 0 13-4 17-9 4-5 5-12 3-19z m-169 83l-56-55 111 0z m-145-98l46-171 167 0 52 171z m59-235c24 0 43-19 43-42 0-24-19-43-43-43-23 0-42 19-42 43 0 23 19 42 42 42z m149 0c24 0 43-19 43-42 0-24-19-43-43-43-23 0-42 19-42 43 0 23 19 42 42 42z"/>
<glyph glyph-name="shopping-tag" unicode="&#57365;" d="M491 247l-226-234c-8-9-19-13-30-13-12 0-22 4-30 12l-193 192c-8 9-12 19-12 31 0 11 4 22 13 30l234 226c13 12 34 21 52 21l170 0c24 0 43-19 43-43l0-170c0-18-9-39-21-52z m-22 222l-170 0c-6 0-17-4-22-9l-235-226 193-191 0 0c0 0 0 0 0 0l225 234c5 5 9 16 9 22z m-85-149c-35 0-64 29-64 64 0 35 29 64 64 64 35 0 64-29 64-64 0-35-29-64-64-64z m0 85c-12 0-21-9-21-21 0-12 9-21 21-21 12 0 21 9 21 21 0 12-9 21-21 21z"/>
<glyph glyph-name="shopping-tags" unicode="&#57366;" d="M471 224l-206-213c-7-7-16-11-26-11-10 0-19 4-26 11l-160 161c-14 14-14 38 0 52l212 207c10 10 27 17 42 17l144 0c21 0 37-17 37-37l0-145c0-15-7-32-17-42z m-25 181l-139 0c-3 0-10-2-12-4l-208-203 152-153 202 209c2 2 5 9 5 12z m-75-106c-17 0-31 14-31 32 0 17 14 32 31 32 18 0 32-15 32-32 0-18-14-32-32-32z m75 170l-166 0c-3 0-9-2-12-5l-211-208c-4-4-10-6-15-6-5 0-11 2-15 7-8 8-8 22 0 30l212 208c9 10 27 17 41 17l166 0c12 0 21-10 21-21 0-12-9-22-21-22z"/>
<glyph glyph-name="delivery-box" unicode="&#57367;" d="M495 112l-208-107c-4-3-8-4-12-4 0 0 0 0 0 0 0 0 0 0 0 0-3 0-6 0-9 1l-253 110c-8 3-13 11-13 19l0 250c0 1 1 1 1 2 0 2 0 5 1 7 1 1 1 2 2 3 1 2 3 3 4 5 1 0 1 1 2 1 0 0 0 0 1 0 0 1 0 1 1 1l217 110c5 3 12 3 18 0l247-109c1 0 1-1 2-1 0 0 0 0 1 0 6-4 16-8 16-15l0-256c0-8-11-13-18-17z m-453 33l215-92 0 204-215 92z m30 238l202-88 56 29-200 88z m167 84l-60-30 199-87 59 30z m231-125l-171-82 0-201 171 91z"/>
<glyph glyph-name="delivery-bus" unicode="&#57368;" d="M479 132l-8 0c-7-20-26-35-49-35-23 0-42 15-50 35l-25 0c-4 0-8 2-12 4-4-2-9-4-14-4l-78 0c-7-20-27-35-50-35-23 0-42 15-49 35l-26 0c-17 0-30 14-30 31l0 22c0 10 8 18 17 18 10 0 18-8 18-18l0-17 21 0c7 20 26 35 49 35 23 0 43-15 50-35l75 0 0 186c-1 3-2 5-2 8 0 3 1 5 2 8l0 10-213 0c-9 0-17 7-17 17 0 10 8 18 17 18l216 0c17 0 31-14 31-31l0-4 101 0c7 0 14-5 16-12l40-106c0-1 0-2 0-3 0-1 1-2 1-3l0-93c0-17-14-31-31-31z m-286 36c-9 0-17-8-17-18 0-10 8-18 17-18 10 0 18 8 18 18 0 10-8 18-18 18z m229-36c10 0 17 8 17 18 0 10-7 18-17 18-10 0-18-8-18-18 0-10 8-18 18-18z m-70 124c0 0 0 0 0 0l0-88 20 0c8 20 27 35 50 35 23 0 42-15 49-35l6 0 0 71c-1 0-1-1-2-1l-71 0c-9 0-15 8-15 18l0 88-37 0z m88 88l-18 0 0-70 45 0z m-264 0c0-9-8-17-18-17l-88 0c-9 0-17 8-17 17 0 10 8 18 17 18l88 0c10 0 18-8 18-18z m-35-53c0-9-8-17-18-17l-105 0c-10 0-18 8-18 17 0 10 8 18 18 18l105 0c10 0 18-8 18-18z m-88-35l52 0c10 0 18-8 18-18 0-9-8-17-18-17l-52 0c-10 0-18 8-18 17 0 10 8 18 18 18z"/>
<glyph glyph-name="simple-cart" unicode="&#57369;" d="M510 335l-64-213c-3-9-11-15-21-15l-199 0c0 0 0 0 0 0-3 0-5 0-8 1 0 1-1 1-2 1-1 1-3 2-4 3-1 1-1 2-2 2-1 1-2 3-3 4 0 1-1 2-1 3 0 0 0 1-1 1l-87 322c-3 13-19 25-33 25l-64 0c-12 0-21 10-21 22 0 11 9 21 21 21l64 0c33 0 66-25 74-57l25-92 306 0c6 0 13-4 17-9 4-5 5-12 3-19z m-314-15l46-171 167 0 52 171z m59-235c24 0 43-19 43-42 0-24-19-43-43-43-23 0-42 19-42 43 0 23 19 42 42 42z m149 0c24 0 43-19 43-42 0-24-19-43-43-43-23 0-42 19-42 43 0 23 19 42 42 42z"/>
<glyph glyph-name="ticket" unicode="&#57370;" d="M502 285l-276-276c-4-5-9-7-15-7-5 0-10 2-15 7l-41 41c0 0-1 1-2 1-8 8-8 22 0 30 11 10 16 24 16 38 0 14-5 28-16 38-10 10-23 15-37 15-14 0-28-5-38-15-8-9-22-9-30 0 0 0-1 1-1 2l-41 41c-8 8-8 22 0 30l275 276c8 8 22 8 30 0l41-41c1-1 1-1 2-1 8-9 8-22 0-30-10-10-16-24-16-38 0-14 6-28 16-38 10-10 23-16 38-16 14 0 27 6 37 16 9 8 22 8 30 0 1-1 1-1 2-2l41-41c8-8 8-22 0-30z m-110 15c-26 0-50 10-68 28-18 18-28 42-28 68 0 18 5 35 15 50l-15 15-245-246 14-15c15 10 33 15 51 15 25 0 49-10 67-28 18-18 28-43 28-68 0-18-5-36-14-51l14-14 246 246-15 15c-15-10-32-15-50-15z m-75-85c-5 0-11 2-15 6l-84 85c-9 8-9 22 0 30 8 8 21 8 30 0l84-85c9-8 9-22 0-30-4-4-9-6-15-6z"/>
<glyph glyph-name="handbag" unicode="&#57372;" d="M503 13c-7-8-16-13-27-13l-441 0c-10 0-20 4-27 12-6 8-9 18-8 28l41 273c4 28 29 50 57 50l51 0 0 42c0 59 47 107 106 107 58 0 106-48 106-107l0-42 52 0c28 0 53-22 56-50l40-272c2-10 0-21-6-28z m-333 222z m148 170c0 36-28 64-63 64-35 0-64-28-64-64l0-42 127 0z m22-169l0-1z m87 71c0 7-7 13-14 13l-52 0 0-27c13-8 21-21 21-37 0-24-19-43-42-43-24 0-43 19-43 43 0 16 9 29 21 37l0 27-127 0 0-27c13-8 21-21 21-37 0-24-19-43-42-43-24 0-43 19-43 43 0 16 9 29 22 37l0 27-51 0c-7 0-14-6-15-13l-39-264 422 0z"/>
<glyph glyph-name="wallet" unicode="&#57373;" d="M460 64l-366 0c-28 0-51 23-51 52l0 76-22 0c-11 0-21 10-21 21l0 86c0 11 10 21 21 21l22 0 0 76c0 29 23 52 51 52l366 0c29 0 52-23 52-52l0-280c0-29-23-52-52-52z m-417 171l128 0 0 42-128 0z m426 161c0 5-4 9-9 9l-366 0c-4 0-9-4-9-9l0-76 107 0c12 0 21-10 21-21l0-86c0-11-9-21-21-21l-107 0 0-76c0-5 5-9 9-9l366 0c5 0 9 4 9 9z"/>
<glyph glyph-name="open-sign" unicode="&#57374;" d="M491 67l-470 0c-11 0-21 9-21 21l0 212c0 12 10 21 21 21l118 0 101 120c8 10 24 10 32 0l101-120 118 0c11 0 21-9 21-21l0-212c0-12-10-21-21-21z m-235 327l-61-73 122 0z m213-115l-426 0 0-170 426 0z"/>
<glyph glyph-name="price-tag" unicode="&#57375;" d="M491 247l-226-234c-8-9-19-13-30-13-12 0-22 4-30 12l-193 192c-8 9-12 19-12 31 0 11 4 22 12 30l235 226c13 12 34 21 52 21l170 0c24 0 43-19 43-43l0-170c0-18-9-39-21-52z m-22 222l-170 0c-6 0-17-4-22-9l-235-226 193-191 0 0c0 0 0 0 0 0l225 234c5 5 9 16 9 22z m-64-106c-23 0-42 19-42 42 0 24 19 43 42 43 24 0 43-19 43-43 0-23-19-42-43-42z m-99-111l-30 31c-4 4-10 7-16 8-3 1-5 0-6-1-3-3-2-13 7-23 0 0 0 0 0 0 11-11 19-25 21-40 2-16-3-32-13-43-9-8-21-13-35-13-10 0-21 3-31 8l-2-2c-4-4-10-6-15-6-6 0-11 2-15 6-9 8-9 22 0 30l-15 15c-9 9-9 22 0 30 8 9 21 9 30 0l30-30c6-6 14-9 18-9 1 0 3 1 5 2 1 1 1 3 1 6-1 6-4 12-9 16 0 0 0 0 0 0-25 26-29 62-8 83 11 11 27 16 43 13 8-1 16-3 23-7l2 2c9 8 22 8 31 0 8-9 8-22 0-30l15-15c8-9 8-22 0-31-9-8-22-8-31 0z"/>
<glyph glyph-name="shop" unicode="&#57377;" d="M487 274l0-208c0-24-19-43-42-43l-381 0c-24 0-43 19-43 43l0 208c-12 11-19 26-20 42 0 0 0 1 0 1-1 1-1 2-1 4 0 0 0 1 1 2 0 0-1 1 0 2l31 149c0 0 0 1 0 1 1 2 1 3 2 4 1 2 2 3 2 4 1 1 2 2 3 3 1 0 2 1 3 2 2 0 3 1 4 1 2 1 3 1 4 1 1 0 2 1 2 1l404 0c1 0 2-1 2-1 2 0 3 0 4-1 2 0 3-1 4-1 1-1 2-2 3-2 1-1 2-2 3-3 1-1 2-2 2-3 1-2 2-3 2-4 0-1 1-2 1-2l31-144c1-2 1-5 0-8 0 0 1-1 1-1 0-19-9-35-22-47z m-169-209l130 0 0 192c-2 0-5 0-7 0-18 0-35 7-47 17-12-10-28-17-46-17-11 0-21 2-30 6z m-254 1l213-1 0 196c-7-3-15-4-23-4-18 0-34 7-46 17-12-10-29-17-47-17-18 0-34 7-46 17-13-10-29-17-47-17-2 0-3 0-4 0z m4 233c14 0 25 10 25 22 0 11 10 21 22 21 11 0 21-10 21-21 0-12 11-22 25-22 14 0 26 10 26 22 0 11 9 21 21 21 11 0 21-10 21-21 0-12 11-22 25-22 14 0 26 10 26 22 0 11 9 21 21 21 12 0 21-10 21-21 0-12 12-22 26-22 14 0 25 10 25 22 0 11 9 21 21 21 12 0 21-10 21-21 0-12 12-22 26-22 14 0 25 10 25 22 0 0 0 1 0 1l-27 127-369 0-27-129c0-12 11-21 25-21z m313-148l-42 0 0 42 42 0z"/>
<glyph glyph-name="modern-cart" unicode="&#57378;" d="M491 107l-298 0c0 0 0 0 0 0-3 0-6 0-8 1-1 1-2 1-2 2-2 0-3 1-5 2 0 1-1 2-2 3-1 1-2 2-2 4-1 1-1 2-1 3-1 0-1 1-1 2l-61 321c-3 13-17 24-30 24l-60 0c-11 0-21 10-21 22 0 11 10 21 21 21l60 0c34 0 65-26 72-59l57-304 281 0c11 0 21-9 21-21 0-12-10-21-21-21z m-278-22c24 0 43-19 43-42 0-24-19-43-43-43-23 0-42 19-42 43 0 23 19 42 42 42z m235 0c24 0 43-19 43-42 0-24-19-43-43-43-24 0-43 19-43 43 0 23 19 42 43 42z"/>
<glyph glyph-name="pencil" unicode="&#57379;" d="M503 409l-354-356c0 0 0 0 0 0l0 0c-1-1-3-2-5-3-1 0-1-1-2-1l-112-47c-3-1-6-2-8-2-6 0-11 2-15 6-7 6-8 16-5 24l47 113c0 1 1 2 2 4 1 1 1 2 2 3l0 0c0 0 0 0 0 0l291 293c0 0 0 0 0 0 0 0 0 0 0 0l63 63c4 4 9 6 15 6 5 0 11-2 15-6l66-67c8-8 8-21 0-30z m-427-312l-15-36 36 15z m58 2l261 262-36 37-261-263z m288 361l-33-32 36-36 33 32z"/>
<glyph glyph-name="content-right" unicode="&#57380;" d="M491 235l-171 0c-12 0-21 9-21 21 0 12 9 21 21 21l171 0c11 0 21-9 21-21 0-12-10-21-21-21z m0 106l-171 0c-12 0-21 10-21 22 0 11 9 21 21 21l171 0c11 0 21-10 21-21 0-12-10-22-21-22z m0 107l-171 0c-12 0-21 10-21 21 0 12 9 22 21 22l171 0c11 0 21-10 21-22 0-11-10-21-21-21z m-256-213l-214 0c-11 0-21 9-21 21l0 213c0 12 10 22 21 22l214 0c11 0 21-10 21-22l0-213c0-12-10-21-21-21z m-22 213l-170 0 0-171 170 0z m-192-277l470 0c11 0 21-10 21-22 0-11-10-21-21-21l-470 0c-11 0-21 10-21 21 0 12 10 22 21 22z m0-107l342 0c11 0 21-10 21-21 0-12-10-22-21-22l-342 0c-11 0-21 10-21 22 0 11 10 21 21 21z"/>
<glyph glyph-name="agenda" unicode="&#57381;" d="M459 65l-171 0 0-43c0-6-3-13-9-17-3-2-8-4-12-4-2 0-4 0-6 1l-214 62c-9 3-15 11-15 21l0 343c0 10 6 18 15 21l214 62c6 2 13 1 18-3 6-4 9-10 9-17l0-43 171 0c11 0 21-9 21-21l0-341c0-12-10-21-21-21z m-214 397l-170-50 0-311 170-50z m192-56l-149 0 0-64 85 0c12 0 22-10 22-22 0-11-10-21-22-21l-85 0 0-21 85 0c12 0 22-10 22-21 0-12-10-22-22-22l-85 0 0-21 85 0c12 0 22-10 22-21 0-12-10-22-22-22l-85 0 0-63 149 0z"/>
<glyph glyph-name="quotes" unicode="&#57384;" d="M427 21c-12 0-22 10-22 22 0 11 10 21 21 21 7 0 34 4 41 43l-40 0c-12 0-22 9-22 21l0 85c0 12 10 22 22 22l64 0c11 0 21-10 21-22l0-85c0-84-56-107-85-107z m-150 0c-11 0-21 10-21 22 0 11 9 21 21 21 6 0 34 4 41 43l-41 0c-11 0-21 9-21 21l0 85c0 12 10 22 21 22l64 0c12 0 22-10 22-22l0-85c0-84-56-107-86-107z m-42 256l-64 0c-12 0-22 10-22 22l0 85c0 84 56 107 86 107 11 0 21-10 21-22 0-11-9-21-21-21-6 0-34-4-41-43l41 0c11 0 21-9 21-21l0-85c0-12-10-22-21-22z m-150 0l-64 0c-11 0-21 10-21 22l0 85c0 84 56 107 85 107 12 0 22-10 22-22 0-11-10-21-21-21-7 0-34-4-41-43l40 0c12 0 22-9 22-21l0-85c0-12-10-22-22-22z"/>
<glyph glyph-name="spell-check" unicode="&#57385;" d="M470 136l-105-128c-4-5-10-8-16-8 0 0 0 0-1 0-5 0-10 2-14 6l-64 63c-8 8-8 22 0 30 8 8 22 8 30 0l47-46 91 110c7 9 20 10 29 3 9-8 11-21 3-30z m-114-7c-11-4-23 2-27 13l-19 50-173 0-64-178c-3-9-11-14-20-14-2 0-5 0-7 1-11 4-17 17-13 28l169 469c3 8 11 14 20 14 0 0 0 0 0 0 9 0 16-6 20-14l126-341c4-11-1-23-12-28z m-134 300l-70-194 142 0z"/>
<glyph glyph-name="copy-plain-text" unicode="&#57386;" d="M480 256l-192 0c-12 0-21 10-21 21 0 12 9 22 21 22l192 0c12 0 21-10 21-22 0-11-9-21-21-21z m-107 85c-11 0-21 10-21 22l0 42-43 0c0-1 0-2 0-3l0-18c0-12-9-21-21-21l-171 0c-11 0-21 9-21 21l0 18c0 1 0 2 0 3l-43 0 0-362 320 0c12 0 22-10 22-22 0-11-10-21-22-21l-341 0c-12 0-21 10-21 21l0 406c0 11 9 21 21 21l80 0c10 13 23 22 39 26 7 22 28 38 52 38 24 0 44-16 52-38 15-4 29-13 38-26l80 0c12 0 22-10 22-21l0-64c0-12-10-22-22-22z m-136 93c-12 0-22 9-22 21 0 8-5 14-12 14-7 0-13-6-13-14 0-12-10-21-21-21-16 0-28-13-30-29l127 0c-1 16-14 29-29 29z m30-327c0 11 9 21 21 21l128 0c12 0 21-10 21-21 0-12-9-22-21-22l-128 0c-12 0-21 10-21 22z m0 85c0 12 9 21 21 21l192 0c12 0 21-9 21-21 0-12-9-21-21-21l-192 0c-12 0-21 9-21 21z"/>
<glyph glyph-name="book-open" unicode="&#57392;" d="M491 64l-171 0c-24 0-43-19-43-43 0-11-9-21-21-21-12 0-22 10-22 21 0 24-19 43-42 43l-171 0c-11 0-21 10-21 21l0 406c0 11 10 21 21 21l172 0c0 0 0 0 0 0 0 0 0 0 0 0 25 0 47-11 63-29 15 18 37 29 62 29 1 0 1 0 1 0 0 0 0 0 0 0l172 0c11 0 21-10 21-21l0-406c0-11-10-21-21-21z m-257 364c0 23-18 41-41 41 0 0 0 0 0 0 0 0 0 0 0 0l-150 0 0-362 150 0c0 0 1-1 1-1 15 0 29-4 40-11z m235 41l-150 0c0 0 0 0 0 0 0 0 0 0-1 0-22 0-41-18-41-41l0-333c12 7 26 11 41 11 0 1 1 1 1 1l150 0z m-170-256c0 12 9 22 21 22l107 0c11 0 21-10 21-22 0-11-10-21-21-21l-107 0c-12 0-21 10-21 21z m128 64l-107 0c-12 0-21 10-21 22 0 11 9 21 21 21l107 0c11 0 21-10 21-21 0-12-10-22-21-22z m0 86l-107 0c-12 0-21 9-21 21 0 12 9 21 21 21l107 0c11 0 21-9 21-21 0-12-10-21-21-21z m-342-171c-12 0-21 10-21 21 0 12 9 22 21 22l107 0c12 0 21-10 21-22 0-11-9-21-21-21z m107 85l-107 0c-12 0-21 10-21 22 0 11 9 21 21 21l107 0c12 0 21-10 21-21 0-12-9-22-21-22z m0 86l-107 0c-12 0-21 9-21 21 0 12 9 21 21 21l107 0c12 0 21-9 21-21 0-12-9-21-21-21z"/>
<glyph glyph-name="bookmarks" unicode="&#57397;" d="M478 4c-7-3-16-2-23 4l-135 115-135-115c-4-4-9-5-14-5-3 0-6 0-9 1-8 4-13 12-13 20l0 383c0 12 10 20 22 20l298 0c12 0 22-8 22-20l0-383c0-8-5-16-13-20z m-30 381l-256 0 0-315 114 98c8 6 20 6 28 0l114-98z m-107 86l-277 0 0-318 18 14c9 8 22 6 30-3 7-9 6-23-4-30l-52-42c-4-3-9-4-13-4-3 0-7 0-10 2-7 3-12 11-12 19l0 383c0 12 10 20 22 20l298 0c12 0 22-8 22-20 0-12-10-21-22-21z"/>
<glyph glyph-name="newspaper" unicode="&#57398;" d="M430 0c-1 0-1 0-2 0l-344 0c-1 0-1 0-2 0-33 2-61 30-61 64l0 299c0 11 10 21 22 21l62 0c1 0 1 0 2 0l0 107c0 11 9 21 21 21l341 0c12 0 22-10 22-21l0-427c0-34-28-62-61-64z m-323 342c-1 0-1-1-2-1l-41 0 0-277c0-12 10-21 21-21 12 0 22 9 22 21z m341 127l-299 0 0-405c0-8-1-15-4-21l282 0c11 0 21 9 21 21z m-43-320l-213 0c-12 0-21 10-21 22 0 11 9 21 21 21l213 0c12 0 22-10 22-21 0-12-10-22-22-22z m0 86l-213 0c-12 0-21 9-21 21 0 12 9 21 21 21l213 0c12 0 22-9 22-21 0-12-10-21-22-21z m-85 106l-128 0c-12 0-21 10-21 22 0 11 9 21 21 21l128 0c12 0 21-10 21-21 0-12-9-22-21-22z"/>
<glyph glyph-name="notebook" unicode="&#57399;" d="M416 0l-317 0c0 0-1 0-1 0-1 0-1 0-2 0-12 0-21 10-21 21l0 86-22 0c-11 0-21 9-21 21 0 12 10 21 21 21l22 0 0 86-22 0c-11 0-21 9-21 21 0 12 10 21 21 21l22 0 0 86-22 0c-11 0-21 9-21 21 0 12 10 21 21 21l22 0 0 86c0 11 9 21 21 21 1 0 1 0 2 0 0 0 1 0 1 0l317 0c35 0 64-29 64-64l0-384c0-35-29-64-64-64z m-299 405c12 0 22-9 22-21 0-12-10-21-22-21l0-86c12 0 22-9 22-21 0-12-10-21-22-21l0-86c12 0 22-9 22-21 0-12-10-21-22-21l0-64 235 0 0 426-235 0z m320 43c0 12-9 21-21 21l-21 0 0-426 21 0c12 0 21 9 21 21z"/>
<glyph glyph-name="clipboard" unicode="&#57402;" d="M427 0l-342 0c-11 0-21 10-21 21l0 427c0 12 10 21 21 21l64 0 0 22c0 11 10 21 22 21l170 0c12 0 22-10 22-21l0-22 64 0c11 0 21-9 21-21l0-427c0-11-10-21-21-21z m-107 469l-128 0 0-10c0-6 6-11 13-11l102 0c7 0 13 5 13 11z m85-42l-54 0c-10-13-26-22-44-22l-102 0c-18 0-34 9-44 22l-54 0 0-384 298 0z"/>
<glyph glyph-name="clipboard-checked" unicode="&#57403;" d="M427 0l-342 0c-11 0-21 10-21 21l0 427c0 12 10 21 21 21l64 0 0 22c0 11 10 21 22 21l170 0c12 0 22-10 22-21l0-22 64 0c11 0 21-9 21-21l0-427c0-11-10-21-21-21z m-107 469l-128 0 0-10c0-6 6-11 13-11l102 0c7 0 13 5 13 11z m85-42l-54 0c-10-13-26-22-44-22l-102 0c-18 0-34 9-44 22l-54 0 0-384 298 0z m-198-199l28-27 70 70c8 8 22 8 30 0 8-8 8-22 0-30l-85-85c-4-5-10-7-15-7-6 0-11 2-15 7l-43 42c-8 9-8 22 0 30 8 9 22 9 30 0z"/>
<glyph glyph-name="paper-written" unicode="&#57405;" d="M448 294c0 0 0-1-1-1 0 0 0 0 0 0l-171-174c0 0 0 0-1 0 0-1-2-1-3-2-1-1-2-2-4-2 0 0 0 0 0 0l-71-27c-2-1-4-2-7-2l-63 0c-12 0-21 10-21 22 0 11 9 21 21 21l48 0 22 58c0 0 0 0 0 0 1 1 1 2 2 3 1 1 1 3 3 4 0 0 0 0 0 0l171 173c0 1 0 1 1 1 0 0 0 0 0 1 10 10 23 15 37 15 14 0 27-5 37-15 20-21 20-55 0-75z m-30 44c-2 3-5 4-7 4-1 0-4-1-7-4 0 0-1 0-1 0 0 0 0-1 0-1l-168-170-9-23 23 9 168 170c0 0 1 0 1 0 0 0 0 1 0 1 4 4 4 10 0 14z m-18 67c-11 0-14 10-14 22l0 42-171 0 0-106c0-12-13-21-25-21l-105 0 2-299 299 0 0 128c0 11 3 22 14 22 12 0 29-11 29-22l0-128c0-21-24-42-44-42l-306 0c-20 0-34 21-34 42l0 311c0 0 0 1-1 1-3 8-1 17 5 23l126 127c0 0 0 0 0 0 2 2 4 4 6 5 1 0 1 0 2 0 2 1 4 1 6 1 0 0 1 1 1 1l195 0c20 0 44-22 44-43l0-42c0-12-17-22-29-22z m-227 43l-58-64 58 0z"/>
<glyph glyph-name="pen-nib" unicode="&#57406;" d="M461 244l-190-236c-4-5-10-8-16-8 0 0 0 0 0 0 0 0 0 0-1 0 0 0 0 0 0 0-9 0-16 5-20 13l-187 240c-7 9-6 22 3 29l75 69c0 0 0 0 0 0-26 26-40 60-40 94 0 0 0 0 0 1l0 45c0 11 9 21 21 21l296 0c12 0 21-10 21-21l0-45c0-1 0-1 0-1 0-34-14-67-39-94l75-79c8-8 8-20 2-28z m-80 225l-254 0 0-23c0-24 10-47 28-65 0 0 0 0 0 0 0 0 0 0 0 0 24-25 60-40 99-40 39 0 75 15 99 40 0 0 0 0 0 0 0 0 0 0 0 0 18 18 28 41 28 65z m-31-144c-28-17-61-26-96-26-34 0-67 9-95 26l-66-61 140-180 0 93c-13 7-21 21-21 36 0 24 19 43 42 43 23 0 42-19 42-43 0-15-8-29-21-36l0-97 141 176z"/>
<glyph glyph-name="content-list" unicode="&#57407;" d="M491 149l-256 0c-12 0-22 10-22 22 0 11 10 21 22 21l256 0c11 0 21-10 21-21 0-12-10-22-21-22z m0 171l-256 0c-12 0-22 10-22 21 0 12 10 22 22 22l256 0c11 0 21-10 21-22 0-11-10-21-21-21z m0 85l-256 0c-12 0-22 10-22 22 0 11 10 21 22 21l256 0c11 0 21-10 21-21 0-12-10-22-21-22z m-342-362l-128 0c-11 0-21 9-21 21l0 128c0 12 10 21 21 21l128 0c12 0 22-9 22-21l0-128c0-12-10-21-22-21z m-21 128l-85 0 0-86 85 0z m21 128l-128 0c-11 0-21 9-21 21l0 128c0 12 10 21 21 21l128 0c12 0 22-9 22-21l0-128c0-12-10-21-22-21z m-21 128l-85 0 0-86 85 0z m107-320l256 0c11 0 21-10 21-22 0-11-10-21-21-21l-256 0c-12 0-22 10-22 21 0 12 10 22 22 22z"/>
<glyph glyph-name="quantum-physics" unicode="&#57410;" d="M486 338c-11-26-27-54-46-82 19-28 35-56 46-82 29-65 28-117-2-146-15-15-36-23-62-23-46 0-107 25-168 67-62-42-123-67-169-67 0 0 0 0 0 0-26 0-47 8-62 23-30 29-30 81-2 146 11 26 27 54 47 82-20 28-36 56-47 82-28 65-28 117 2 146 15 15 36 23 62 23 46 0 107-25 169-67 61 42 122 67 168 67 26 0 47-8 62-23 30-29 31-81 2-146z m-64-291c14 0 25 4 32 10 16 16 14 54-6 100-9 21-21 42-35 63-18-21-37-43-58-64-21-21-43-40-65-57 50-33 97-52 132-52z m-363 110c-20-46-22-84-6-100 7-6 18-10 32-10 35 0 83 19 133 52-22 17-44 36-66 57-21 21-40 43-58 64-14-21-26-42-35-63z m26 308c-14 0-25-4-32-10-16-16-14-54 6-100 9-21 21-42 35-63 18 21 37 43 58 64 22 21 43 40 66 57-50 33-98 52-133 52z m97-138c-23-23-44-47-62-71 18-24 39-48 62-71 23-22 48-43 72-61 24 18 48 39 71 61 23 23 44 47 62 71-18 24-39 48-62 71-23 22-47 43-71 61-24-18-49-39-72-61z m272 128c-7 6-18 10-32 10-35 0-82-19-132-52 22-17 44-36 65-57 21-21 40-43 58-64 14 21 26 42 35 63 20 46 22 84 6 100z m-200-241c-24 0-43 19-43 42 0 23 19 42 43 42 23 0 42-19 42-42 0-23-19-42-42-42z"/>
<glyph glyph-name="school-bag" unicode="&#57411;" d="M475 21l-438 0c-20 0-37 17-37 36l0 312c0 20 17 36 37 36l112 0 0 33c0 29 25 53 56 53l102 0c31 0 56-24 56-53l0-33 112 0c20 0 37-16 37-36l0-312c0-19-17-36-37-36z m-432 43l192 0 0 171-22 0 0-6c0-32-28-58-64-58-16 0-32 5-44 16-12 11-20 26-20 42l0 6-42 0z m85 165c0-5 3-8 5-10 4-4 10-6 16-6 12 0 22 7 22 16l0 48-43 0z m192 209c0 5-6 10-13 10l-102 0c-7 0-13-5-13-10l0-33 128 0z m149-75l-426 0 0-86 42 0 0 22c0 11 10 21 22 21l85 0c12 0 21-10 21-21l0-22 86 0 0 22c0 11 9 21 21 21l85 0c12 0 22-10 22-21l0-22 42 0z m-128-86l0-48c0-5 4-8 5-10 5-4 11-6 17-6 11 0 21 7 21 16l0 48z m128-42l-42 0 0-6c0-32-29-58-64-58-17 0-32 5-44 16-13 11-20 26-20 42l0 6-22 0 0-171 192 0z"/>
<glyph glyph-name="blackboard" unicode="&#57413;" d="M491 405l0-277c0-12-10-21-22-21l-102 0 55-73c7-9 6-23-4-30-4-3-8-4-13-4-6 0-12 3-17 8l-71 94c-1 2-1 3-2 5l-118 0c-1-2-1-3-2-5l-71-94c-5-5-11-8-17-8-5 0-9 1-13 4-10 7-11 21-4 30l55 73-102 0c-12 0-22 9-22 21l0 277c-11 0-21 10-21 22 0 11 10 21 21 21l214 0 0 43c0 11 9 21 21 21 12 0 21-10 21-21l0-43 214 0c11 0 21-10 21-21 0-12-10-22-21-22z m-427-256l384 0 0 256-384 0z"/>
<glyph glyph-name="university" unicode="&#57414;" d="M489 278c0 0 0 0 0 0l-43 0 0-149 21 0c12 0 22-10 22-22 0-11-10-21-22-21l-425 0c-11 0-21 10-21 21 0 12 10 22 21 22l22 0 0 149-43 0c-9 0-17 6-20 14-3 9 0 19 8 24l233 170c8 6 18 6 25 0l232-168c7-4 11-11 11-19 0-12-9-21-21-21z m-128-149l43 0 0 149-43 0z m-85 0l43 0 0 149-43 0z m-42 0l0 149-43 0 0-149z m-129 0l44 0 0 149-44 0z m150 314l-168-123 336 0z m-234-378l468 0c11 0 21-10 21-21 0-12-10-22-21-22l-468 0c-12 0-21 10-21 22 0 11 9 21 21 21z"/>
<glyph glyph-name="bonds" unicode="&#57415;" d="M472 172l-87-53 0-98c0-11-15-21-26-21-12 0-16 10-16 21l0 92-101 61c-10 6-13 19-7 29 0 0 1 0 1 1l0 102-88 53-84-51 0-104 95-58c10-6 13-19 7-29-4-7-11-10-18-10-4 0-8 1-11 3l-105 64c-1 0-2 1-2 1-1 1-2 2-3 3-1 1-2 2-3 4 0 1-1 2-1 3-1 2-1 3-1 5 0 0-1 1-1 2l0 128c0 1 1 2 1 2 0 2 0 3 1 5 0 1 1 2 1 3 1 2 2 3 3 4 1 1 2 2 3 3 0 0 1 1 2 1l97 60 0 93c0 11 7 21 19 21 12 0 24-10 24-21l0-97 81-49 95 57c1 1 2 1 3 1 1 1 2 1 4 2 1 0 2 0 4 0 1 0 2 0 4 0 1-1 3-1 4-2 1 0 2 0 3-1l102-62c10-3 20-11 20-20l0-128c0-9-10-17-20-20z m-113 187l-80-49 0-108 80-49 90 55 0 96z"/>
<glyph glyph-name="briefcase-1" unicode="&#57416;" d="M475 21l-438 0c-20 0-37 17-37 37l0 310c0 21 17 37 37 37l112 0 0 30c0 31 25 56 56 56l102 0c31 0 56-25 56-56l0-30 112 0c20 0 37-16 37-37l0-310c0-20-17-37-37-37z m-155 414c0 7-6 13-13 13l-102 0c-7 0-13-6-13-13l0-30 128 0z m149-72l-426 0 0-128 426 0z m0-171l-426 0 0-128 426 0z m-234 107l42 0c12 0 22-10 22-22 0-11-10-21-22-21l-42 0c-12 0-22 10-22 21 0 12 10 22 22 22z"/>
<glyph glyph-name="bulb" unicode="&#57417;" d="M347 198c-3-4-6-17-6-26l0-105c0-2 0-3 0-4-4-22-26-63-85-63-59 0-82 41-85 63 0 1 0 2 0 4l0 105c0 1 0 1 0 1 0 0 0 0 0 1 0 8-3 20-7 24-51 38-79 87-79 143 0 94 77 171 171 171 94 0 171-77 171-171 0-56-28-106-80-143z m-91-155c34 0 41 20 43 26l0 43c-14-4-28-5-40-5-18 0-33 2-46 6l0-44c2-6 10-26 43-26z m0 426c-71 0-128-57-128-128 0-54 34-90 63-110 1-1 1-1 1-1 1-1 1-1 2-1 18-18 19-49 19-55 0-1 0-1 0-1 0 0 0 0 0-1l0-14c17-7 51-15 86 0l0 14c0 0 0 0 0 0 0 0 0 0 0 0 0 7 1 40 20 57 0 0 0 0 1 1 0 0 0 0 1 1 29 20 63 56 63 110 0 71-57 128-128 128z"/>
<glyph glyph-name="bulb-idea" unicode="&#57418;" d="M459 433c-4-4-9-6-15-6-5 0-10 2-15 6-8 9-8 22 0 30l43 43c8 8 21 8 30 0 8-8 8-22 0-30z m-114-255c-4-3-7-17-7-25l0-85c0-1 0-2 0-3-3-22-25-63-84-63-59 0-81 41-85 63 0 1 2-1 2 0l0 73c-2 4-2 8-1 12 0 1-1 2-1 4 0 8-3 20-6 24-51 38-79 87-79 143 0 94 76 170 170 170 93 0 169-76 169-170 0-56-27-106-78-143z m-91-133c33 0 43 15 45 20l0 50c-15-5-29-7-43-7-17 0-32 3-45 7l0-44c2-7 10-26 43-26z m0 403c-70 0-127-57-127-127 0-54 34-90 63-110 0-1 0-1 1-1 0-1 1-1 1-1 15-15 19-39 19-50 17-6 51-14 85 0 1 12 5 36 20 50 0 0 1 0 1 1 1 0 1 0 1 1 29 20 63 56 63 110 0 70-57 127-127 127z m-191-21c-5 0-11 2-15 6l-42 43c-8 8-8 22 0 30 8 8 22 8 30 0l42-43c9-8 9-21 0-30-4-4-9-6-15-6z m-42-149c-12 0-21 10-21 22 0 11 9 21 21 21l21 0c12 0 21-10 21-21 0-12-9-22-21-22z m27-91c9 8 22 8 30 0 9-8 9-22 0-30l-42-42c-4-5-10-7-15-7-6 0-11 2-15 7-8 8-8 21 0 30z m418 113c-12 0-22 9-22 21 0 12 10 21 22 21l21 0c11 0 21-9 21-21 0-12-10-21-21-21z m-7-113l43-42c8-9 8-22 0-30-4-5-10-7-15-7-6 0-11 2-15 7l-43 42c-8 8-8 22 0 30 9 8 22 8 30 0z"/>
<glyph glyph-name="chemical-cube" unicode="&#57419;" d="M448 192c0-106-86-192-192-192-106 0-192 86-192 192 0 75 42 143 107 175l0 102c-12 0-22 10-22 22 0 11 10 21 22 21l170 0c12 0 22-10 22-21 0-12-10-22-22-22l0-102c65-32 107-100 107-175z m-192-149c75 0 137 55 148 128l-296 0c11-73 73-128 148-128z m43 426l-86 0 0-115c0 0 0 0 0 0 0-2 0-4-1-6 0-1 0-2 0-3-1-1-2-2-3-3 0-1-1-2-2-3-1-1-2-1-2-2-2-1-3-2-5-3 0 0 0 0 0 0-50-19-84-66-92-121l296 0c-8 55-42 102-92 121 0 0 0 0 0 0-2 1-3 2-5 3 0 1-1 1-2 2-1 1-2 2-2 3-1 1-2 2-3 3 0 1 0 2 0 3-1 2-1 4-1 6 0 0 0 0 0 0z"/>
<glyph glyph-name="drawers" unicode="&#57420;" d="M448 0l-384 0c-12 0-21 10-21 21l0 438c0 29 22 53 51 53l324 0c29 0 51-24 51-53l0-438c0-11-9-21-21-21z m-21 459c0 6-4 10-9 10l-324 0c-5 0-9-4-9-10l0-96 342 0z m0-139l-342 0 0-107 342 0z m-342-149l0-128 342 0 0 128z m207-86l-68 0-4 0c-1 0-3 0-4 0-11 0-24 1-34 11-8 8-11 18-11 32 0 12 9 21 21 21 12 0 21-9 21-21l0 0c2 0 5 0 7 0l68 0 4 0c2 0 5 0 7 0l0 0c0 12 9 21 21 21 12 0 21-9 21-21 0-14-3-24-11-32-11-11-26-11-38-11z m-100 214c12 0 21-10 21-22l0 0c2 0 5 0 7 0l68 0 4 0c2 0 5 0 7 0l0 0c0 12 9 22 21 22 12 0 21-10 21-22 0-14-3-24-11-31-11-12-26-12-38-11l-68 0-4 0c-1 0-3 0-4 0-11 0-24 1-34 11-8 7-11 17-11 31 0 12 9 22 21 22z m0 149c12 0 21-10 21-21l0 0c2 0 5 0 7 0l68 0 4 0c2 0 5 0 7 0l0 0c0 11 9 21 21 21 12 0 21-10 21-21 0-14-3-25-11-32-11-11-26-11-38-11l-68 0-4 0c-1 0-3 0-4 0-11 0-24 1-34 11-8 7-11 18-11 32 0 11 9 21 21 21z"/>
<glyph glyph-name="grade" unicode="&#57421;" d="M489 385l-64 0 0-64c0-11-10-21-21-21-12 0-21 10-21 21l0 64-64 0c-12 0-21 9-21 21 0 12 9 19 21 19l64 0 0 66c0 12 9 21 21 21 11 0 21-9 21-21l0-66 64 0c12 0 21-7 21-19 0-12-10-21-21-21z m-120-381c-3-1-5-1-8-1-8 0-17 5-20 14l-64 177-171 0-64-177c-4-11-17-17-28-13-11 4-16 16-12 27l170 467c3 9 11 14 19 14 9 0 17-5 20-14l170-467c4-11-1-23-12-27z m-178 425l-71-196 143 0z"/>
<glyph glyph-name="graduation-cap" unicode="&#57422;" d="M469 87c-23 0-42 19-42 42 0 16 8 30 21 37l0 118-45-26c1-2 2-6 2-9l0-149c0-12-9-22-21-22-2 0-4 1-5 2-25-14-72-36-134-36-61 0-109 22-133 36-2-1-3-2-5-2-12 0-22 10-22 22l0 149c0 3 1 7 3 9l-77 44c-7 4-11 11-11 19 0 8 4 15 11 18l224 128c6 4 14 4 21 0l224-128c7-3 11-10 11-18 0-1-1-2-1-4 0-1 1-3 1-4l0-147c12-7 21-21 21-37 0-23-19-42-43-42z m-106 32l0 117-107-61c-3-2-7-3-11-3-3 0-7 1-10 3l-107 61 0-116c17-11 60-33 117-33 58 0 100 22 118 32z m-118 305l-181-103 181-103 181 103z"/>
<glyph glyph-name="molecule" unicode="&#57423;" d="M405 277c59 0 107-48 107-106 0-59-48-107-107-107-39 0-73 22-92 54l-101-44c1-3 1-7 1-10 0-35-28-64-64-64-35 0-64 29-64 64 0 35 29 64 64 64 17 0 32-6 43-17l108 48c-1 4-1 8-1 12 0 7 0 14 2 21 0 1-1 1-1 1l-148 74c-16-19-40-32-67-32-47 0-85 38-85 85 0 47 38 85 85 85 28 0 52-13 67-33l145 73c1 0 1 0 2 0 0 1 0 2 0 3 0 35 28 64 64 64 35 0 64-29 64-64 0-35-29-64-64-64-19 0-36 9-48 22l-146-73c1-4 2-9 2-13 0-5-1-9-2-14l149-75c19 28 51 46 87 46z m0-170c36 0 64 28 64 64 0 35-28 64-64 64-35 0-64-29-64-64 0-36 29-64 64-64z m-256-22c-11 0-21-9-21-21 0-12 10-21 21-21 12 0 22 9 22 21 0 12-10 21-22 21z m-64 278c-23 0-42-19-42-43 0-24 19-43 42-43 24 0 43 19 43 43 0 24-19 43-43 43z m278 64c11 0 21 9 21 21 0 12-10 21-21 21-12 0-22-9-22-21 0-12 10-21 22-21z"/>
<glyph glyph-name="nerd-glasses" unicode="&#57424;" d="M509 171c0-65-52-118-116-118-65 0-117 53-117 118 0 13 3 26 7 38-2 1-3 3-5 5 0 1-6 10-23 10-17 0-24-9-24-11-1-1-3-3-4-4 4-12 7-25 7-38 0-65-53-118-117-118-64 0-117 53-117 118 0 2 1 4 1 6-1 2-1 5-1 7l32 211c3 22 23 64 74 64 12 0 21-10 21-22 0-11-9-21-21-21-26 0-32-23-33-28l-17-118c18 11 38 18 61 18 35 0 66-16 87-41 11 10 27 20 51 20 23 0 40-10 50-20 22 25 53 41 88 41 22 0 43-7 61-18l-18 119c-1 4-6 27-33 27-11 0-21 10-21 21 0 12 10 22 21 22 51 0 71-42 75-64l31-211c1-2 0-5 0-7 0-2 0-4 0-6z m-392 74c-41 0-74-33-74-74 0-42 33-75 74-75 41 0 74 33 74 75 0 41-33 74-74 74z m276 0c-41 0-75-33-75-74 0-42 34-75 75-75 41 0 74 33 74 75 0 41-33 74-74 74z"/>
<glyph glyph-name="add-tab" unicode="&#57425;" d="M491 0l-384 0c-12 0-22 10-22 21l0 384c0 12 10 22 22 22l384 0c11 0 21-10 21-22l0-384c0-11-10-21-21-21z m-22 384l-341 0 0-341 341 0z m-256-149l64 0 0 64c0 11 10 21 22 21 11 0 21-10 21-21l0-64 64 0c12 0 21-10 21-22 0-11-9-21-21-21l-64 0 0-64c0-12-10-21-21-21-12 0-22 9-22 21l0 64-64 0c-11 0-21 10-21 21 0 12 10 22 21 22z m192 234l-362 0 0-362c0-12-10-22-22-22-11 0-21 10-21 22l0 384c0 11 10 21 21 21l384 0c12 0 22-10 22-21 0-12-10-22-22-22z"/>
<glyph glyph-name="zoom-out" unicode="&#57426;" d="M504 6c-5-4-10-6-15-6-6 0-11 2-15 6l-164 164c-32-26-74-42-119-42-105 0-191 86-191 192 0 106 86 192 191 192 105 0 191-86 191-192 0-45-15-87-42-120l164-164c8-8 8-21 0-30z m-313 463c-82 0-149-67-149-149 0-82 67-149 149-149 82 0 149 67 149 149 0 82-67 149-149 149z m85-170l-170 0c-12 0-21 9-21 21 0 12 9 21 21 21l170 0c12 0 21-9 21-21 0-12-9-21-21-21z"/>
<glyph glyph-name="code" unicode="&#57427;" d="M506 242l-107-106c-4-4-10-6-15-6-5 0-11 2-15 6-8 8-8 22 0 30l92 91-92 91c-8 9-8 22 0 30 8 9 22 9 30 0l107-106c4-4 6-9 6-15 0-5-2-11-6-15z m-294-203c-2-9-11-15-20-15-2 0-4 0-6 1-11 3-18 15-14 26l128 425c3 11 15 17 26 14 11-3 18-15 14-26z m-69 97c-4-4-10-6-15-6-5 0-11 2-15 6l-107 106c-4 4-6 10-6 15 0 6 2 11 6 15l107 106c8 9 22 9 30 0 8-8 8-21 0-30l-91-91 91-91c8-8 8-22 0-30z"/>
<glyph glyph-name="window" unicode="&#57435;" d="M469 21l-426 0c-24 0-43 19-43 43l0 384c0 24 19 43 43 43l426 0c24 0 43-19 43-43l0-384c0-24-19-43-43-43z m0 43l0 299-426 0 0-299z m-426 384l0-43 426 0 0 43z"/>
<glyph glyph-name="linkk-broken" unicode="&#57436;" d="M467 294c0 0 0 0-1 0 0 0 0 0 0 0l-73-73c-4-4-9-6-14-6-6 0-11 2-15 7-8 8-8 22 0 30l73 72c0 0 0 0 0 0 33 33 33 88 0 121-32 33-85 33-118 0 0 0 0 0 0 0l-71-75c-4-4-9-6-15-6-5 0-10 2-14 6-8 8-9 21-1 30l71 75c0 0 0 0 1 0 0 0 0 0 0 0 48 50 128 50 177 0 48-50 48-131 0-181z m-296 90c-12 0-21 9-21 21l0 62c0 12 9 21 21 21 11 0 20-9 20-21l0-62c0-12-9-21-20-21z m-27-120l-73-73c0 0 0 0 0 0-33-33-33-87 0-120 32-34 86-34 118 0 0 0 0 0 0 0l71 74c8 9 21 9 29 1 9-8 9-22 1-30l-71-75c0 0 0 0 0 0 0 0 0 0 0-1-25-24-57-37-89-37-32 0-64 13-89 37-48 50-48 132 0 181 1 0 1 1 1 1 0 0 0 0 0 0l73 72c8 8 21 8 29 0 8-9 8-22 0-30z m-93 98l63 0c11 0 20-9 20-21 0-11-9-21-20-21l-63 0c-11 0-20 10-20 21 0 12 9 21 20 21z m66 20c-5 0-10 2-14 6l-62 62c-8 8-8 21 0 30 8 8 21 8 29 0l62-63c8-8 8-21 0-29-4-4-9-6-15-6z m221-255c11 0 20-10 20-21l0-63c0-11-9-21-20-21-12 0-19 7-19 18l0 63c0 12 7 24 19 24z m78-4l62-62c8-9 8-22 0-30-4-4-9-6-15-6-5 0-10 2-14 6l-63 63c-8 8-8 21 0 29 9 8 22 8 30 0z m-6 31c-11 0-20 9-20 21 0 11 11 18 23 18l62 0c12 0 18-7 18-18 0-12-9-21-21-21z"/>
<glyph glyph-name="link" unicode="&#57437;" d="M470 286l-98-98c-25-25-58-39-93-39-35 0-68 14-92 39-7 7-16 19-25 31l-2 3c-7 10-5 23 5 30 9 7 22 5 29-5l2-2c6-8 16-22 21-27 16-17 39-26 62-26 24 0 46 9 63 26l98 98c34 35 34 92 0 127-17 17-40 26-63 26-24 0-46-9-63-26l-52-53c-8-8-21-9-30 0-8 8-8 21 0 30l52 53c25 25 58 39 93 39 35 0 68-14 93-39 51-51 51-135 0-187z m-149 38c7-7 16-19 25-31l2-3c7-10 5-23-5-30-9-7-23-5-29 5l-2 2c-6 8-16 22-21 27-17 17-39 26-63 26-23 0-46-9-62-26l-98-98c-34-35-34-92 0-127 17-17 39-26 63-26 24 0 46 9 63 26l52 53c8 8 21 9 30 0 8-8 8-21 0-30l-52-53c-25-25-58-39-93-39-35 0-68 14-93 39-51 51-51 135 0 187l98 98c24 25 57 39 92 39 36 0 68-14 93-39z"/>
<glyph glyph-name="html5" unicode="&#57438;" d="M447 62c-1-9-7-17-16-19l-171-42c-1-1-3-1-5-1-1 0-3 0-5 1l-170 42c-9 2-15 10-16 19l-43 427c0 6 2 12 6 16 4 4 9 7 15 7l426 0c6 0 12-3 16-7 4-4 6-10 5-16z m-381 407l39-388 150-38 151 38 39 388z m296-106l-189 0 8-64 159 0c6 0 12-3 16-7 4-4 6-10 6-16l-7-115c-1-9-7-17-16-19l-79-20c-1 0-3 0-5 0 0 0 0 0 0 0 0 0 0 0 0 0 0 0 0 0 0 0 0 0 0 0 0 0-2 0-3 0-5 0l-77 20c-9 2-15 9-16 18l-7 46c-2 12 6 22 18 24 12 2 23-6 24-18l5-32 58-15 58 15 5 76-156 0c0 0 0 0 0 0-3 0-5 1-8 2-1 0-1 1-2 1-2 1-3 2-4 3-1 1-2 2-2 2-1 2-2 3-3 4 0 1-1 2-1 4 0 1-1 2-1 3l-13 106c-1 6 1 13 5 17 4 5 10 7 16 7l213 0c12 0 21-9 21-21 0-12-9-21-21-21z"/>
<glyph glyph-name="hierarchy-structure" unicode="&#57439;" d="M512 64c0-12-10-21-21-21l-107 0 0-22c0-11-10-21-21-21l-342 0c-11 0-21 10-21 21l0 86c0 11 10 21 21 21l342 0c11 0 21-10 21-21l0-22 85 0 0 128-85 0 0-21c0-12-10-21-21-21l-342 0c-11 0-21 9-21 21l0 85c0 12 10 22 21 22l342 0c11 0 21-10 21-22l0-21 85 0 0 128-85 0 0-21c0-12-10-22-21-22l-342 0c-11 0-21 10-21 22l0 85c0 12 10 21 21 21l342 0c11 0 21-9 21-21l0-21 85 0 0 64c0 11 10 21 22 21 11 0 21-10 21-21l0-423c0 0 0-1 0-2 0-1 0-1 0-2z m-171 21l-298 0 0-42 298 0z m0 171l-298 0 0-43 298 0z m0 171l-298 0 0-43 298 0z"/>
<glyph glyph-name="firewall" unicode="&#57440;" d="M469 299c0-2-5-223-206-295 0 0 0 0 0 0-2-1-5-2-7-2-2 0-5 1-7 2 0 0 0 0 0 0-201 72-206 293-206 295 0 12 0 31 0 43l0 64c0 23 19 42 42 42l22 0c89 0 130 53 131 55 4 5 10 8 17 8 7 1 14-2 19-8 1-2 42-55 131-55l22 0c23 0 42-19 42-42l0-64c0-12 0-31 0-43z m-42 107l-22 0c-78 0-126 33-149 54-23-21-71-54-149-54l-22 0 0-64c0-12 0-31 1-42 0-8 5-188 170-253 166 65 170 251 170 253 1 11 1 30 1 42z"/>
<glyph glyph-name="badge" unicode="&#57441;" d="M506 94c-5-7-14-10-22-8l-89 18-36-91c-3-7-10-13-19-13 0 0 0 0 0 0-9 0-16 5-20 12l-65 135-66-135c-4-7-11-12-19-12-1 0-1 0-1 0-8 0-16 6-19 13l-36 91-89-18c-8-2-16 1-21 8-5 7-5 16-1 24l85 142c-9 22-14 46-14 71 0 100 81 181 181 181 99 0 180-81 180-181 0-25-5-49-14-71l85-142c5-8 4-17 0-24z m-442 43l59 12c10 2 20-4 24-13l25-62 39 81c-39 10-74 33-98 64z m191 332c-76 0-138-62-138-138 0-77 62-139 138-139 76 0 138 62 138 139 0 76-62 138-138 138z m141-250c-24-32-58-54-98-64l40-81 24 62c4 9 14 15 24 13l59-12z"/>
<glyph glyph-name="crown" unicode="&#57442;" d="M503 418c1-2 2-3 2-4 1-2 1-3 1-4 1-1 0-3 0-4 0-1 0-3 0-4 0-1 0-1 0-1l-62-231 0-103c0-9-6-17-15-20-3-1-68-22-176-22-107 0-174 21-176 22-9 3-15 11-15 20l0 106c0 0 0 1 0 1l-61 227c0 0 0 0 0 1-1 1-1 3-1 4 0 1 0 3 1 4 0 1 0 2 1 4 0 1 1 2 2 4 0 0 0 0 0 1 1 0 1 1 2 1 1 2 2 3 3 4 1 0 3 1 4 1 1 1 2 1 3 2 0 0 0 0 1 0 1 0 3 0 4 0 1 0 3 0 4 0 1 0 2-1 4-1 1-1 2-1 3-2 1 0 1 0 1 0l128-92 74 147c0 1 1 2 1 2 1 2 2 3 3 4 1 1 2 2 3 2 1 1 1 1 2 2 0 0 1 0 1 0 2 1 3 1 5 1 1 1 2 1 3 1 2 0 3 0 4-1 2 0 3 0 5-1 0 0 0 0 1 0 1-1 1-1 2-2 1 0 2-1 3-2 1-1 2-2 3-4 0 0 1-1 1-2l74-147 127 92c1 0 1 0 1 0 2 1 3 1 4 2 2 0 3 1 4 1 1 0 3 0 4 0 1 0 3 0 4 0 1 0 1 0 1 0 1-1 2-1 3-2 1 0 2-1 4-2 1 0 2-1 3-3 1 0 1-1 2-1 0-1 0-1 0-1z m-399-335c24-6 77-16 149-16 73 0 124 10 148 16l0 63c-29-7-80-15-148-15-68 0-119 8-149 15z m149 339l-65-131c0-1-1-1-1-1 0-1 0-2-1-2-1-2-3-3-4-4-1-1-2-2-3-2-3-2-6-3-10-3-3 0-6 1-8 2-1 0-1 0-1 0-1 0-1 1-1 1-1 0-2 1-2 1l-100 71 45-164c23-6 77-17 151-17 77 0 131 12 152 17l45 164-100-71c0 0-1-1-2-1 0 0 0-1-1-1 0 0 0 0-1 0-2-1-5-2-8-2-4 0-7 1-10 3-1 0-2 1-3 2-1 1-3 2-4 4-1 0-1 1-1 2 0 0-1 0-1 1z"/>
<glyph glyph-name="flag" unicode="&#57444;" d="M474 235c-40-33-82-44-123-44-43 0-85 12-125 23-62 18-117 33-162 1l0-195c0-12-10-22-21-22-12 0-21 10-21 22l0 439c0 1 0 1 0 2 0 6 2 12 7 17 64 54 138 33 209 13 75-22 146-42 214 15 2 3 6 4 9 5 2 0 3 1 4 1 1 0 1-1 2-1 0 0 0 0 0 0 12-1 24-12 24-23l0-235c0-8-8-15-17-18z m-123 191c-43 0-85 12-125 23-62 18-117 33-162 1l0-186c55 24 115 8 174-9 74-21 144-40 211 14l0 183c-33-19-65-26-98-26z"/>
<glyph glyph-name="heart" unicode="&#57445;" d="M469 254c0 0-1 0-1 0l-170-212c-12-13-28-21-44-21-17 0-33 8-44 21l-171 212c0 0 0 0-1 0-51 55-51 142 2 196 26 26 61 41 97 41 36 0 70-14 96-40 0 0 0 0 0 0l20-18 21 18c0 0 0 0 0 0 26 26 60 40 96 40 37 0 71-15 97-41 53-54 53-141 2-196z m-32 166c-18 18-42 28-67 28-26 0-49-10-67-28-1-1-1-1-1-1 0 0-1 0-1-1l-34-29c0 0-1 0-2-1-1-1-3-2-4-2-1-1-1-1-2-1-2 0-3-1-5-1-3 0-6 1-9 2 0 0 0 0 0 0-2 1-4 2-5 3l-34 29c0 1-1 1-1 1 0 0 0 0 0 1-18 18-42 28-68 28-25 0-49-10-67-28-37-38-37-100 0-138 0 0 0 0 1-1 0 0 0 0 0 0l171-212c5-6 17-7 24 1l170 211c0 0 0 0 0 0 1 1 1 1 1 1 37 38 37 100 0 138z"/>
<glyph glyph-name="like" unicode="&#57446;" d="M510 266l-27-217c-3-27-28-49-56-49l-172 0c-22 0-51 11-69 25l-37 31 0-13c0-12-10-22-22-22l-106 0c-12 0-21 10-21 22l0 277c0 12 9 21 21 21l106 0c12 0 22-9 22-21l26 0c8 40 27 132 32 147 8 26 35 45 64 45 38 0 69-31 69-68l0-124 121 0c15 0 28-6 37-16 10-10 14-24 12-38z m-404 33l-64 0 0-235 64 0z m361-24c-2 2-3 2-6 2l-143 0c-12 0-22 10-22 22 0 3 1 6 3 9l0 131c-1 2-1 3-1 5 0 13-13 25-27 25-11 0-21-7-24-15-3-12-22-104-33-160-2-9-11-17-21-17l-44 0 0-166 64-53c10-8 30-15 42-15l172 0c6 0 13 5 13 11l28 217c0 1 0 3-1 4z"/>
<glyph glyph-name="trophy" unicode="&#57450;" d="M422 344c-17-68-74-120-145-129l0-108 43 0c12 0 21-10 21-22 0-11-9-21-21-21l-128 0c-12 0-21 10-21 21 0 12 9 22 21 22l43 0 0 108c-71 9-128 61-145 129-52 10-90 70-90 125 0 12 10 22 21 22l64 0c0 11 10 21 22 21l298 0c12 0 22-10 22-21l64 0c11 0 21-10 21-22 0-55-38-115-90-125z m-337 104l-40 0c6-24 21-47 40-58z m299 21l-256 0 0-85c0-71 57-128 128-128 71 0 128 57 128 128z m43-21l0-58c18 11 34 34 40 58z m-278-405l214 0c11 0 21-10 21-22 0-11-10-21-21-21l-214 0c-11 0-21 10-21 21 0 12 10 22 21 22z"/>
<glyph glyph-name="unlike" unicode="&#57451;" d="M498 208c-9-10-22-16-37-16l-121 0 0-124c0-37-31-68-69-68-29 0-56 19-64 45-5 15-24 107-32 147l-26 0c0-12-10-21-22-21l-106 0c-12 0-21 9-21 21l0 277c0 12 9 22 21 22l106 0c12 0 22-10 22-22l0-13 37 31c18 14 47 25 69 25l172 0c28 0 53-22 56-50l27-215c2-15-2-29-12-39z m-392 240l-64 0 0-235 64 0z m334 9c0 7-7 12-13 12l-172 0c-12 0-32-7-42-15l-64-53 0-166 44 0c10 0 19-8 21-17 11-56 29-148 33-160 3-8 13-15 24-15 14 0 27 12 27 25l0 138c-1 3-2 5-2 7 0 12 10 22 22 22l143 0c3 0 4 0 6 2 1 1 1 3 1 5z"/>
<glyph glyph-name="users-male" unicode="&#57452;" d="M485 70l-318 0c-15 0-27 12-27 27l0 23c0 5 2 10 7 13l107 64c-36 40-37 95-37 97l0 66c0 1 0 2 1 3 8 47 62 79 108 79 0 0 0 0 0 0 45 0 100-31 108-79 0-1 0-2 0-3l0-66c0-2 0-57-36-97l106-64c5-3 8-8 8-13l0-23c0-15-12-27-27-27z m-4 41l-117 70c-1 1-2 2-3 3 0 0-1 1-1 1 0 0 0 0 0 0-1 1-1 2-2 4 0 0 0 1-1 2 0 1 0 2 0 3 0 1 0 1 0 2 0 1 0 2 1 2 0 2 0 3 1 4 0 0 0 0 0 0 1 1 1 2 2 2 1 1 1 2 2 3 40 31 40 87 40 87l0 65c-5 28-42 52-77 52-35 0-72-25-78-52l0-65c0 0 1-57 41-87 1-1 1-2 2-3 0 0 1-1 2-2 0 0 0 0 0 0 0-1 1-2 1-4 0 0 1-1 1-2 0 0 0-1-1-2 0-1 1-2 0-3 0-1 0-2-1-2 0-2-1-3-1-4 0 0 0 0 0 0-1-1-2-1-3-2 0-1-1-1-2-2l-116-70 0-10 310 0z m-282 299c-4 1-9 1-13 1-35 0-72-25-77-52l0-65c0 0 0-57 40-87 1-1 1-2 2-3 1 0 1-1 2-2 0 0 0 0 0 0 1-1 1-2 1-4 1 0 1-1 1-2 0 0 0-1 0-2 0-1 0-2 0-3 0-1-1-2-1-2-1-2-1-3-2-4 0 0 0 0 0 0 0 0-1-1-1-1-1-1-2-2-3-3l-117-70 0-10 63 0c9 0 16-7 16-15 0-9-7-16-16-16l-67 0c-15 0-27 12-27 27l0 23c0 5 3 10 8 13l106 64c-36 40-36 95-36 97l0 66c0 1 0 2 0 3 8 48 63 80 109 79 5 0 11 0 18-1 8-2 14-10 12-18-1-9-9-14-18-13z"/>
<glyph glyph-name="user-male" unicode="&#57457;" d="M475 0l-438 0c-20 0-37 17-37 37l0 31c0 8 4 15 10 19l147 88c-50 55-50 129-50 133l0 91c0 2 0 3 0 4 12 65 86 109 149 109 0 0 0 0 0 0 63 0 137-44 149-109 0-1 0-2 0-4l0-91c0-4 0-78-50-133l147-88c6-4 10-11 10-19l0-31c0-20-17-37-37-37z m-6 56l-160 96c-2 2-3 3-5 5 0 0-1 0-1 1 0 0 0 0 0 0-1 1-2 3-2 5-1 1-1 2-2 2 0 2 0 3 0 5 0 1 0 2 0 4 0 1 1 1 1 2 0 2 1 4 2 5 0 1 0 1 0 1 0 1 1 2 2 3 1 1 2 2 3 3 55 42 56 119 56 120l0 89c-8 38-59 72-107 72-48 0-99-34-107-72l0-89c0-1 1-78 56-120 1-1 2-2 3-3 1-1 2-2 2-3 0 0 0 0 0-1 1-1 2-3 2-5 0-1 1-1 1-2 0-2 0-3 0-4 0-2 0-3 0-5-1 0-1-1-1-2-1-2-2-4-3-5 0 0 0 0 0 0-1-1-2-2-3-3-1-1-2-2-3-3l-160-96 0-13 426 0z"/>
<glyph glyph-name="user-female" unicode="&#57460;" d="M475 0l-438 0c-20 0-37 17-37 37l0 31c0 8 4 15 11 19l143 78-76 28c-8 3-13 10-14 18-1 8 3 15 9 20 33 23 50 117 53 171 0 1 0 2 0 3 11 62 66 107 130 107 64 0 119-45 130-107 0-1 0-2 0-3 3-54 20-148 53-171 6-5 10-12 9-20-1-8-6-15-14-18l-74-28 141-78c7-4 11-11 11-19l0-31c0-20-17-37-37-37z m-6 56l-144 80c0 0 0 0 0 0-7 4-26 15-26 33 0 15 13 27 31 30l60 23c-38 56-46 158-47 177-7 41-44 70-87 70-43 0-80-29-87-70-1-19-9-121-47-177l60-23c14-2 31-11 31-28 0-15-7-26-23-35 0 0 0 0 0 0 0 0 0 0 0 0l-147-80 0-13 426 0z"/>
<glyph glyph-name="team-tree" unicode="&#57462;" d="M464 356c28-14 48-42 48-75 0-12-10-21-21-21l-128 0c-12 0-22 9-22 21 0 33 20 61 48 75-16 11-26 30-26 51 0 34 28 62 64 62 35 0 64-28 64-62 0-21-11-40-27-51z m-37 71c-12 0-22-9-22-20 0-12 10-21 22-21 11 0 21 9 21 21 0 11-10 20-21 20z m0-104c-16 0-30-9-37-21l74 0c-8 12-22 21-37 21z m-107 104c-5 0-9 2-13 5-28 22-74 22-102 0-9-7-22-6-30 3-7 9-6 23 4 30 43 34 111 34 154 0 10-7 11-21 4-30-5-5-11-8-17-8z m-149-141c0-2 0-4 0-5 0-12-9-21-21-21 0 0-1 0-1 0l-128 0c-11 0-21 9-21 21 0 33 20 61 48 75-16 11-27 30-27 51 0 34 29 62 64 62 36 0 64-28 64-62 0-21-10-40-26-51 27-13 46-40 48-70z m-86 141c-11 0-21-9-21-20 0-12 10-21 21-21 12 0 22 9 22 21 0 11-10 20-22 20z m0-104c-15 0-29-9-37-21l74 0c-7 12-21 21-37 21z m-8-86c11 5 23 0 28-11 15-34 35-62 56-74 10-7 13-20 6-29-4-7-11-10-18-10-4 0-8 1-11 3-40 25-64 74-72 94-5 10 0 23 11 27z m142-119c-16 12-27 30-27 51 0 35 29 63 64 63 35 0 64-28 64-63 0-21-11-39-27-51 29-13 48-42 48-75 0-11-9-21-21-21l-128 0c-12 0-21 10-21 21 0 33 19 62 48 75z m37 72c-12 0-21-9-21-21 0-11 9-21 21-21 12 0 21 10 21 21 0 12-9 21-21 21z m37-126c-7 13-21 21-37 21-16 0-30-8-37-21z m114 162c5 11 17 16 28 11 11-4 16-17 11-27-8-20-32-69-72-94-3-2-7-3-11-3-7 0-14 3-18 10-7 9-4 22 6 29 21 12 41 40 56 74z"/>
<glyph glyph-name="identity" unicode="&#57463;" d="M491 139c-12 0-22 9-22 21l0 235-384 0c-11 0-21 9-21 21 0 12 10 21 21 21l406 0c11 0 21-9 21-21l0-256c0-12-10-21-21-21z m-43 213l0-256c0-12-10-21-21-21l-406 0c-11 0-21 9-21 21l0 256c0 12 10 21 21 21l406 0c11 0 21-9 21-21z m-43-21l-362 0 0-214 362 0z m-333-146l35 19c-11 9-16 27-16 36l0 16c0 21 19 32 37 32 18 0 37-11 37-32l0-16c0-10-5-28-16-36l35-19c0 0 8-3 8-8l0-9c0-4-4-8-8-8l-112 0c-4 0-8 4-8 8l0 9c0 5 8 8 8 8z m163 103l128 0c11 0 21-10 21-21 0-12-10-22-21-22l-128 0c-12 0-22 10-22 22 0 11 10 21 22 21z m0-64l85 0c12 0 21-10 21-21 0-12-9-22-21-22l-85 0c-12 0-22 10-22 22 0 11 10 21 22 21z"/>
<glyph glyph-name="people" unicode="&#57464;" d="M512 203c0-12-10-22-21-22l-25 0-18-120c-2-11-11-18-21-18l-43 0c-11 0-19 7-21 18l-10 64c-2 11 6 22 18 24 11 2 22-6 24-18l7-46 6 0 19 121c0 1 1 1 1 2 0 2 1 3 1 4 1 2 2 3 2 4 1 1 2 2 3 3 1 1 2 1 4 2 1 1 2 1 3 2 2 0 3 0 4 0 1 1 2 1 3 1l21 0 0 37c0 1 0 1 0 1 0 0 0 0 0 0 0 12-2 69-42 69-12 0-22 9-22 21 0 4 2 8 4 11-1 0-2 0-4 0-35 0-64 28-64 64 0 35 29 64 64 64 36 0 64-29 64-64 0-24-12-44-31-55 45-6 74-48 74-110 0 0 0 0 0 0 0 0 0 0 0-1z m-107 245c-11 0-21-10-21-21 0-12 10-22 21-22 12 0 22 10 22 22 0 11-10 21-22 21z m-42-171c0 0 0 0 0 0 0 0 0 0 0-1l0-84c0-12-10-21-22-21l-23 0-20-152c-1-11-10-19-21-19l-42 0c-11 0-20 8-21 19l-20 152-23 0c-12 0-22 9-22 21l0 84c0 1 0 1 0 1 0 0 0 0 0 0 0 59 48 107 107 107 59 0 107-48 107-107z m-43 0c0 36-29 64-64 64-35 0-64-28-64-64 0 0 0 0 0 0 0 0 0 0 0-1l0-63 21 0c1 0 2 0 3 0 2 0 3-1 4-1 2-1 3-1 4-2 1-1 2-1 3-2 1-1 2-2 3-3 1-1 2-2 2-3 1-2 1-3 2-5 0-1 0-1 0-2l20-152 4 0 20 152c0 1 0 1 0 2 1 2 1 3 2 4 0 2 1 3 2 4 1 1 2 2 3 3 1 1 2 1 3 2 1 1 2 1 4 2 1 0 2 1 4 1 1 0 2 0 3 0l21 0 0 63c0 1 0 1 0 1 0 0 0 0 0 0z m-128 171c0 35 29 64 64 64 35 0 64-29 64-64 0-35-29-64-64-64-35 0-64 29-64 64z m64-21c12 0 21 9 21 21 0 12-9 21-21 21-12 0-21-9-21-21 0-12 9-21 21-21z m-149-64c-2 0-3 0-4 0 2-3 4-7 4-11 0-12-10-21-22-21-40 0-42-57-42-69 0 0 0 0 0 0 0 0 0 0 0-1l0-37 21 0c1 0 2 0 3-1 1 0 2 0 4 0 1-1 2-1 3-2 2-1 3-1 4-2 1-1 2-2 3-3 0-1 1-2 2-4 0-1 1-2 1-4 0-1 1-1 1-2l19-121 6 0 7 46c2 12 13 20 24 18 12-2 20-13 18-24l-10-64c-2-11-10-18-21-18l-43 0c-10 0-19 7-21 18l-18 120-25 0c-11 0-21 10-21 22l0 58c0 1 0 1 0 1 0 0 0 0 0 0 0 62 29 104 74 110-19 11-31 31-31 55 0 35 28 64 64 64 35 0 64-29 64-64 0-36-29-64-64-64z m0 85c-12 0-22-10-22-21 0-12 10-22 22-22 11 0 21 10 21 22 0 11-10 21-21 21z"/>
<glyph glyph-name="users-male-female" unicode="&#57465;" d="M485 70l-318 0c-15 0-27 12-27 27l0 23c0 6 3 11 8 14l103 56-55 21c-5 2-9 7-10 13 0 5 2 11 7 14 24 17 36 85 38 125 0 0 0 1 1 2 7 45 47 77 94 77 46 0 86-32 94-77 0-1 0-2 0-2 2-40 15-108 39-125 4-3 7-9 6-14 0-6-4-11-10-13l-53-21 102-57c5-2 8-7 8-13l0-23c0-15-12-27-27-27z m-4 41l-105 58c0 0 0 0 0 0-5 3-19 11-19 24 0 11 9 20 23 22l43 17c-27 41-33 115-34 128-5 30-32 51-63 51-31 0-58-21-64-51-1-13-6-87-33-128l43-17c10-2 23-8 23-21 0-10-6-19-17-25 0 0 0 0 0 0 0 0 0 0 0 0l-107-58 0-10 310 0z m-282 299c-4 1-9 1-13 1-35 0-72-24-77-52l0-65c0 0 0-57 40-87 1-1 1-2 2-2 1-1 1-2 2-3 0 0 0 0 0 0 1-1 1-2 1-4 1 0 1-1 1-2 0 0 0-1 0-2 0-1 0-2 0-3 0-1-1-2-1-2-1-2-1-3-2-4 0 0 0 0 0 0 0 0-1-1-1-1-1-1-2-2-3-3l-117-70 0-10 63 0c9 0 16-7 16-15 0-9-7-16-16-16l-67 0c-15 0-27 12-27 27l0 23c0 5 3 10 8 13l106 64c-36 40-36 95-36 97l0 66c0 1 0 2 0 3 8 48 63 80 109 79 5 0 11 0 18-1 8-2 14-10 12-18-1-8-9-14-18-13z"/>
<glyph glyph-name="bicycling" unicode="&#57466;" d="M405 32c-58 0-106 48-106 107 0 58 48 106 106 106 59 0 107-48 107-106 0-59-48-107-107-107z m0 171c-35 0-64-29-64-64 0-36 29-64 64-64 36 0 64 28 64 64 0 35-28 64-64 64z m0 64l-21 0c-6 0-13 3-17 8l-72 90-74-59 52-69c3-4 4-8 4-13l0-107c0-11-9-21-21-21-12 0-21 10-21 21l0 100-60 80c-7 9-5 22 4 29l106 85c10 8 23 6 30-3l79-99 11 0c12 0 22-9 22-21 0-12-10-21-22-21z m-21 128c-24 0-43 19-43 42 0 24 19 43 43 43 24 0 43-19 43-43 0-23-19-42-43-42z m-171-256c0-59-48-107-106-107-59 0-107 48-107 107 0 58 48 106 107 106 58 0 106-48 106-106z m-106 64c-36 0-64-29-64-64 0-36 28-64 64-64 35 0 64 28 64 64 0 35-29 64-64 64z"/>
<glyph glyph-name="car" unicode="&#57467;" d="M492 295l-29 0c0 0 0 0 0 0 17-3 29-17 29-35l0-126c0-20-15-36-34-36l-5 0 0-19c0-11-9-20-20-20l-79 0c-10 0-19 9-19 20l0 19-158 0 0-19c0-11-9-20-19-20l-79 0c-11 0-20 9-20 20l0 19-5 0c-19 0-34 16-34 36l0 126c0 18 12 32 29 35 0 0 0 0 0 0l-29 0c-11 0-20 9-20 20 0 11 9 20 20 20l39 0c0 0 1 0 1 0l28 90c5 16 22 28 38 28l260 0c16 0 33-12 38-28l28-90c0 0 1 0 1 0l39 0c11 0 20-9 20-20 0-11-9-20-20-20z m-106 118l-260 1-37-119 334 0z m67-157l-394 0 0-118 394 0z m-325-20c16 0 30-13 30-29 0-17-14-30-30-30-16 0-30 13-30 30 0 16 14 29 30 29z m256 0c16 0 30-13 30-29 0-17-14-30-30-30-16 0-30 13-30 30 0 16 14 29 30 29z"/>
<glyph glyph-name="motorcycle" unicode="&#57468;" d="M427 257c47 0 85-38 85-85 0-46-38-84-85-84-47 0-86 38-86 84 0 29 14 53 36 69l-12 25c-33-19-56-55-56-98l-2-18c-1-11-10-20-21-20l-73 0c-11 0-21 10-21 21 0 49-14 86-40 111-17 15-36 24-53 30-4 1-8 2-10 2-25 6-45 6-45 5-12-1-22 9-23 20 0 12 9 22 20 23 2 0 25 1 55-6 0 0 1 0 1 0 44-13 165-33 204 26 2 3 5 6 9 7l-5 15-28 0c-11 0-21 10-21 22 0 11 10 21 21 21l43 0c0 0 1 0 1 0 1-1 3-1 4-1 2-1 3-1 4-1 1-1 2-2 3-3 1 0 3-1 3-2 1-1 2-2 3-3 0-1 1-3 2-4 0 0 0-1 0-1l14-41c7-2 12-5 15-12l19-41c8 2 16 3 24 3l31 0c12 0 21-10 21-21 0-12-9-22-21-22l-31 0c-2 0-4 0-5 0l9-22c4 1 7 1 11 1z m-94 78c-31-43-86-55-137-55-1 0-2 0-4 0 24-28 38-64 41-108l33 0c1 58 34 108 81 133z m62-134c-7-8-11-18-11-29 0-23 19-42 43-42 23 0 42 19 42 42 0 21-14 38-33 42l12-26c4-10 0-23-11-28-3-1-6-2-9-2-8 0-16 5-19 13z m-310 56c47 0 86-38 86-85 0-46-39-84-86-84-47 0-85 38-85 84 0 47 38 85 85 85z m0-127c24 0 43 19 43 42 0 24-19 43-43 43-23 0-42-19-42-43 0-23 19-42 42-42z"/>
<glyph glyph-name="van" unicode="&#57469;" d="M475 128l-10 0c-8-25-32-43-60-43-27 0-51 18-60 43l-157 0c-9-25-32-43-60-43-28 0-51 18-60 43l-31 0c-20 0-37 17-37 37l0 225c0 20 16 37 37 37l302 0c22 0 42-12 53-30l48-81 11-3c36-12 60-46 61-84l0-64c0-20-17-37-37-37z m-120 247c-3 5-9 9-16 9l-41 0 0-64 90 0z m114-146c0 20-13 37-32 43l-15 5-145 0c-12 0-22 10-22 22l0 85-212 0 0-213 25 0c9 24 32 42 60 42 28 0 51-18 60-42l157 0c9 24 33 42 60 42 28 0 52-18 60-42l4 0z"/>
<glyph glyph-name="alram" unicode="&#57470;" d="M502 367c-4-5-10-7-15-7-5 0-10 2-14 5l-124 109c-9 8-10 21-2 30 7 9 21 10 29 2l124-109c9-7 10-21 2-30z m-37-153c0-117-94-212-211-212-117 0-211 95-211 212 0 117 94 213 211 213 117 0 211-96 211-213z m-211 170c-93 0-169-76-169-170 0-94 76-170 169-170 93 0 169 76 169 170 0 94-76 170-169 170z m63-255c-6 0-12 3-16 8l-63 75c-1 1-1 2-2 2 0 2-1 3-2 4 0 2 0 3-1 5 0 1 0 1 0 2l0 95c0 12 9 22 21 22 12 0 21-10 21-22l0-87 59-69c7-9 6-22-3-30-4-3-9-5-14-5z m-282 236c-4-3-9-5-14-5-5 0-11 2-16 7-7 9-6 23 2 30l125 109c8 8 22 7 29-2 8-9 7-22-2-30z"/>
<glyph glyph-name="calendar" unicode="&#57471;" d="M469 0l-426 0c-24 0-43 19-43 43l0 384c0 23 19 42 43 42l106 0 0 22c0 11 10 21 22 21 11 0 21-10 21-21l0-22 128 0 0 22c0 11 10 21 21 21 12 0 22-10 22-21l0-22 106 0c24 0 43-19 43-42l0-384c0-24-19-43-43-43z m-106 427l0-22c0-11-10-21-22-21-11 0-21 10-21 21l0 22-128 0 0-22c0-11-10-21-21-21-12 0-22 10-22 21l0 22-106 0 0-384 426 0 0 384z m42-299l-42 0c-12 0-22 10-22 21l0 43c0 12 10 21 22 21l42 0c12 0 22-9 22-21l0-43c0-11-10-21-22-21z m0 128l-42 0c-12 0-22 10-22 21l0 43c0 12 10 21 22 21l42 0c12 0 22-9 22-21l0-43c0-11-10-21-22-21z m-128-128l-42 0c-12 0-22 10-22 21l0 43c0 12 10 21 22 21l42 0c12 0 22-9 22-21l0-43c0-11-10-21-22-21z m0 128l-42 0c-12 0-22 10-22 21l0 43c0 12 10 21 22 21l42 0c12 0 22-9 22-21l0-43c0-11-10-21-22-21z m-128-128l-42 0c-12 0-22 10-22 21l0 43c0 12 10 21 22 21l42 0c12 0 22-9 22-21l0-43c0-11-10-21-22-21z m0 128l-42 0c-12 0-22 10-22 21l0 43c0 12 10 21 22 21l42 0c12 0 22-9 22-21l0-43c0-11-10-21-22-21z"/>
<glyph glyph-name="clock-circle" unicode="&#57474;" d="M256 0c-141 0-256 115-256 256 0 141 115 256 256 256 141 0 256-115 256-256 0-141-115-256-256-256z m0 469c-118 0-213-95-213-213 0-118 95-213 213-213 118 0 213 95 213 213 0 118-95 213-213 213z m85-320c-5 0-11 2-15 7l-85 85c-2 2-4 4-5 7-1 2-1 5-1 8l0 149c0 12 9 22 21 22 12 0 21-10 21-22l0-140 79-79c9-9 9-22 0-30-4-5-9-7-15-7z"/>
<glyph glyph-name="infinite" unicode="&#57477;" d="M473 165c-26-26-60-39-95-39-34 0-69 12-94 38-9 8-9 22-1 31 9 8 22 9 31 0 34-34 95-34 130 1 16 16 25 38 25 61 0 24-9 45-25 62-35 34-91 34-125 0-18-19-29-43-41-67-14-29-29-59-54-87 0 0-1 0-1 0 0 0 0 0 0 0-25-26-59-38-92-38-34 0-67 12-92 38-25 24-39 57-39 93 0 35 14 68 39 92 51 52 138 52 189 1 9-8 9-22 1-31-9-9-22-9-31 0-34 34-95 34-130-1-16-17-25-38-25-62 0-23 9-45 25-61 35-34 91-34 125 0 21 22 33 48 47 75 13 27 26 55 48 79 0 0 1 0 1 0 0 0 0 0 0 0 51 51 134 51 184 0 25-24 39-57 39-92 0-36-14-69-39-93z"/>
<glyph glyph-name="map-marker" unicode="&#57478;" d="M270 5c-4-3-9-5-14-5-5 0-10 2-14 5-7 6-178 155-178 314 0 106 86 193 192 193 106 0 192-87 192-193 0-159-171-308-178-314z m-14 464c-82 0-149-67-149-150 0-115 109-231 149-269 39 38 149 154 149 269 0 83-67 150-149 150z m0-236c-47 0-85 38-85 85 0 47 38 86 85 86 47 0 85-39 85-86 0-47-38-85-85-85z m0 128c-24 0-43-19-43-43 0-23 19-42 43-42 24 0 43 19 43 42 0 24-19 43-43 43z"/>
<glyph glyph-name="location-marker" unicode="&#57479;" d="M256 0c-113 0-235 29-235 92 0 32 31 62 79 78 11 3 23-3 27-14 4-11-3-23-14-27-35-11-49-29-49-37 0-14 67-49 192-49 125 0 192 35 192 49 0 8-14 26-49 37-11 4-18 16-14 27 4 11 16 17 27 14 48-16 79-46 79-78 0-63-122-92-235-92z m14 69c-4-3-9-5-14-5-5 0-10 2-14 5-6 5-157 135-157 273 0 94 77 170 171 170 94 0 171-76 171-170 0-138-151-268-157-273z m-14 400c-71 0-128-57-128-127 0-96 92-194 128-228 36 34 128 132 128 228 0 70-57 127-128 127z m-64-128c0 36 29 64 64 64 35 0 64-28 64-64 0-35-29-64-64-64-35 0-64 29-64 64z m85 0c0 12-9 22-21 22-12 0-21-10-21-22 0-11 9-21 21-21 12 0 21 10 21 21z"/>
<glyph glyph-name="wrist-watch" unicode="&#57483;" d="M370 129l-15-110c-1-11-10-19-21-19l-156 0c-11 0-20 8-21 19l-14 110c-35 31-58 76-58 127 0 51 23 96 58 127l14 110c1 11 10 19 21 19l156 0c11 0 20-8 21-19l15-110c35-32 57-77 57-127 0-50-22-95-57-127z m-173-86l119 0 7 56c-21-9-43-14-67-14-24 0-46 5-66 14z m119 426l-119 0-7-56c20 9 42 14 66 14 24 0 46-5 67-14z m-60-85c-71 0-128-57-128-128 0-71 57-128 128-128 71 0 128 57 128 128 0 71-57 128-128 128z m85-149l-85 0c-12 0-21 9-21 21l0 85c0 12 9 22 21 22 12 0 21-10 21-22l0-64 64 0c12 0 22-9 22-21 0-12-10-21-22-21z"/>
<glyph glyph-name="phone-location" unicode="&#57487;" d="M366 154c-4-3-9-5-14-5-5 0-10 2-14 5-3 3-71 61-71 125 0 46 38 84 85 84 47 0 85-38 85-84 0-64-68-122-71-125z m-14 166c-24 0-43-18-43-41 0-29 25-60 43-79 18 19 43 51 43 79 0 23-19 41-43 41z m-127-193c11 0 21-10 21-22 0-12-10-21-21-21-12 0-22 9-22 21 0 12 10 22 21 22z m-44 300c0 11 10 21 22 21l42 0c12 0 22-10 22-21 0-12-10-22-22-22l-42 0c-12 0-22 10-22 22z m171-43c-12 0-21 10-21 21l0 43c0 12-10 21-22 21l-170 0c-12 0-22-9-22-21l0-384c0-12 10-21 22-21l170 0c12 0 22 9 22 21l0 43c0 11 9 21 21 21 12 0 21-10 21-21l0-43c0-35-28-64-64-64l-170 0c-36 0-64 29-64 64l0 384c0 35 28 64 64 64l170 0c36 0 64-29 64-64l0-43c0-11-9-21-21-21z"/>
<glyph glyph-name="navigation" unicode="&#57488;" d="M276 1c-1 0-1 0-2 0-9 1-17 8-19 17l-40 200-200 61c-9 2-15 10-15 19 0 9 5 17 13 21l468 191c8 3 17 1 23-5 6-6 8-15 4-23l-212-468c-4-8-11-13-20-13z m-191 301l155-46c7-3 13-9 15-17l29-148 163 359z"/>
<glyph glyph-name="map-location" unicode="&#57489;" d="M507 20c-4-6-11-9-18-9l-467 0c-7 0-14 3-18 9-4 6-5 14-2 20l64 150c3 8 11 13 19 13l43 0c12 0 21-10 21-22 0-11-9-21-21-21l-29 0-45-107 403 0-46 107-28 0c-12 0-21 10-21 21 0 12 9 22 21 22l42 0c9 0 17-5 20-13l64-150c3-6 2-14-2-20z m-238 102c-4-3-9-5-14-5-4 0-9 2-13 5-6 5-135 115-135 233 0 81 66 146 148 146 82 0 149-65 149-146 0-118-129-228-135-233z m-14 337c-58 0-106-47-106-104 0-78 75-158 106-188 32 30 107 110 107 188 0 57-48 104-107 104z m-42-107c0 24 19 43 42 43 24 0 43-19 43-43 0-24-19-43-43-43-23 0-42 19-42 43z"/>
<glyph glyph-name="aperture" unicode="&#57566;" d="M499 337c8-25 13-52 13-80 0-89-46-168-116-213-1 0-1-1-1-1-40-26-88-41-139-41-59 0-114 21-157 55-1 0-2 1-3 1-58 47-96 119-96 199 0 141 115 255 256 255 4 0 8-1 12-1 3 1 6 1 9 0 103-9 189-78 221-172 0-1 1-1 1-2z m-30-80c0 13-1 26-3 39l-176-133 96-74c51 39 83 100 83 168z m-213-212c33 0 63 7 91 20l-174 135-37-118c34-24 75-37 120-37z m-213 212c0-56 22-107 58-145l65 209-113 0c-7-20-10-42-10-64z m213 212c-79 0-148-42-184-106l216 0z m-45-148l-25-78 69-53 70 53-24 78z m91 143l59-194 91 69c-27 63-82 110-150 125z"/>
<glyph glyph-name="volume-on" unicode="&#57570;" d="M391 88c-2-1-5-1-7-1-9 0-17 6-20 15-4 11 2 23 14 26 54 18 91 70 91 129 0 58-38 111-92 129-11 3-17 15-14 26 4 12 16 18 27 14 73-23 122-91 122-169 0-78-49-146-121-169z m37 169c0-47-39-85-86-85-12 0-21 9-21 21 0 12 9 21 21 21 24 0 43 19 43 43 0 23-19 42-43 42-12 0-21 10-21 22 0 11 9 21 21 21 47 0 86-38 86-85z m-141-232c-3-1-6-2-9-2-5 0-10 2-14 5l-144 123-77 0c-24 0-43 19-43 42l0 128c0 23 19 42 43 42l77 0 144 123c6 5 15 6 23 3 7-4 12-11 12-19l0-426c0-8-5-16-12-19z m-31 398l-114-97c-1-1-2-1-3-2-1 0-2-1-3-2-2 0-3 0-5-1-1 0-2 0-3 0l-85 0 0-128 85 0c1 0 2 0 3-1 2 0 3 0 5 0 1-1 2-2 4-3 0 0 1 0 2-1l114-98z"/>
<glyph glyph-name="aspect-ratio" unicode="&#57573;" d="M470 64l-428 0c-23 0-42 19-42 42l0 300c0 23 19 42 42 42l428 0c23 0 42-19 42-42l0-300c0-23-19-42-42-42z m-1 342l-427-1 1-299 426 1z m1-299l0-22z m-385 277l64 0c12 0 22-10 22-21 0-12-10-22-22-22l-42 0 0-42c0-12-10-22-22-22-11 0-21 10-21 22l0 64c0 11 10 21 21 21z m278-213l42 0 0 42c0 12 10 22 22 22 11 0 21-10 21-22l0-64c0-11-10-21-21-21l-64 0c-12 0-22 10-22 21 0 12 10 22 22 22z"/>
<glyph glyph-name="camera" unicode="&#57574;" d="M448 43l-384 0c-35 0-64 28-64 64l0 234c0 36 29 64 64 64l51 0 28 53c4 7 11 11 19 11l188 0c8 0 15-4 19-11l28-53 51 0c35 0 64-28 64-64l0-234c0-36-29-64-64-64z m21 298c0 12-9 22-21 22l-64 0c-4 0-7 1-10 2-1 1-1 1-2 2-2 1-4 3-6 6 0 0-1 0-1 1l-28 53-162 0-28-53c-1-1-1-2-2-2-1-2-2-3-3-4-1-1-2-1-3-2-1-1-2-1-4-2-1 0-3-1-4-1-1 0-2 0-3 0l-64 0c-12 0-21-10-21-22l0-234c0-12 9-22 21-22l384 0c12 0 21 10 21 22z m-213-213c-65 0-117 53-117 117 0 65 52 118 117 118 65 0 117-53 117-118 0-64-52-117-117-117z m0 192c-41 0-75-34-75-75 0-41 34-74 75-74 41 0 75 33 75 74 0 41-34 75-75 75z"/>
<glyph glyph-name="photo" unicode="&#57581;" d="M465 43l-422 0c-24 0-43 19-43 42l0 342c0 23 19 42 43 42l422 0c24 0 46-19 46-42l0-342c0-23-22-42-46-42z m4 384l-426 0 0-189 113 98c8 7 21 7 28-1l114-115 70 53c9 7 22 5 29-3l72-87z m0-311l-92 111-68-52c-8-6-20-6-28 2l-113 114-125-109 0-97 426 0z m-130 225c0 24 19 43 42 43 23 0 42-19 42-43 0-23-19-42-42-42-23 0-42 19-42 42z m42 0l0-21 0 21c0 0 0 0 0 0z"/>
<glyph glyph-name="frame" unicode="&#57597;" d="M491 64l-106 0c-12 0-21 10-21 21 0 12 9 22 21 22l85 0 0 85c0 12 10 21 21 21 12 0 21-9 21-21l0-107c0-11-9-21-21-21z m-3 235c-12 0-18 9-18 21l0 85-88 0c-12 0-21 10-21 22 0 11 9 21 21 21l106 0c12 0 21-10 21-21l0-107c0-11-9-21-21-21z m-360-235l-107 0c-11 0-21 10-21 21l0 106c0 12 10 22 21 22 12 0 22-10 22-22l0-84 85 0c11 0 21-10 21-22 0-11-10-21-21-21z m0 341l-85 0 0-85c0-12-10-21-22-21-11 0-21 9-21 21l0 107c0 11 10 21 21 21l107 0c11 0 21-10 21-21 0-12-10-22-21-22z"/>
<glyph glyph-name="stop" unicode="&#57600;" d="M491 0l-470 0c-11 0-21 10-21 21l0 470c0 11 10 21 21 21l470 0c11 0 21-10 21-21l0-470c0-11-10-21-21-21z m-448 43l426 0 0 426-426 0z"/>
<glyph glyph-name="headphone" unicode="&#57603;" d="M427 53l-1 0c-1-2-1-4-2-7 0 0-1-1-1-2-1-2-2-4-3-6 0-1-1-2-1-2-1-2-2-4-4-5 0-1-1-2-2-3-1-1-3-3-4-4-1-1-2-2-4-3-1-1-2-1-3-2-2-1-4-2-5-3-1 0-3-1-4-2-2 0-4-1-6-1-1-1-2-1-4-1-3-1-6-1-10-1-29 0-53 23-53 51l0 153c0 28 24 52 53 52 4 0 7-1 10-1 2-1 3-1 4-1 2-1 4-1 6-2 1-1 3-1 4-2 1-1 3-1 5-2 1-1 2-2 3-3 2-1 3-2 4-3 1-1 3-2 4-4 1-1 2-2 2-3 2-1 3-3 4-4 0-1 1-2 1-3 1-2 2-4 3-6 0-1 1-1 1-2 1-2 1-5 2-7l1 0c7 0 14-1 21-3l0 46c0 106-86 192-192 192-106 0-192-86-192-192l0-46c7 2 14 3 21 3l1 0c5 24 26 43 53 43 29 0 53-24 53-52l0-153c0-28-24-51-53-51-27 0-48 18-53 42l-1 0c-47 0-85 39-85 86 0 21 8 40 21 55l0 73c0 129 106 234 235 234 129 0 235-105 235-234l0-73c13-15 21-34 21-55 0-47-38-86-85-86z m-43 162c0 5-5 9-11 9-5 0-10-4-10-9l0-153c0-4 5-9 10-9 6 0 11 5 11 9z m-256-153c0-4 5-9 11-9 5 0 10 5 10 9l0 153c0 5-5 9-10 9-6 0-11-4-11-9z m-43 34l0 85c-23 0-42-19-42-42 0-24 19-43 42-43z m383 51c0 2 0 3-1 4 0 2 0 3-1 4-1 2-2 4-3 6 0 0-1 1-1 1-1 3-3 5-5 7 0 0 0 0 0 0-8 8-19 12-30 12l0-85c11 0 22 5 30 13 0 0 0 0 0 0 2 2 4 4 5 6 0 0 1 1 1 2 1 1 2 3 3 5 1 1 1 3 1 4 1 1 1 3 1 4 1 3 1 6 1 9 0 3 0 5-1 8z"/>
<glyph glyph-name="microphone" unicode="&#57604;" d="M277 87l0-44 86 0c11 0 21-10 21-22 0-11-10-21-21-21l-214 0c-11 0-21 10-21 21 0 12 10 22 21 22l86 0 0 44c-84 10-150 82-150 169l0 64c0 12 10 21 22 21 11 0 21-9 21-21l0-64c0-71 57-128 128-128 71 0 128 57 128 128l0 64c0 12 10 21 21 21 12 0 22-9 22-21l0-64c0-87-66-159-150-169z m-21 62c-47 0-85 39-85 86 0 0 0 1 0 1 0 1 0 2 0 2l0 192c0 1 0 3 0 4 4 43 40 78 85 78 45 0 81-35 85-78 0-1 0-3 0-4l0-192c0 0 0-1 0-2 0 0 0-1 0-1 0-47-38-86-85-86z m43 89l0 189c0 23-19 42-43 42-24 0-43-19-43-42l0-189c0 0 0-1 0-2 0 0 0-1 0-1 0-24 19-43 43-43 24 0 43 19 43 43 0 0 0 1 0 1 0 1 0 2 0 2z"/>
<glyph glyph-name="3d-glasses" unicode="&#57607;" d="M513 65c0-11-9-21-21-21l-176 0c-6 0-11 2-15 6l-47 49-47-49c-4-4-10-6-15-6l-171 0c-11 0-21 10-21 21l0 171c0 1 1 2 1 3 0 2 0 3 0 4l78 213c2 6 8 11 14 13 7 2 14 0 20-4l49-43c9-8 10-21 2-30-7-9-21-10-30-2l-26 22-56-155 410 0-57 155-26-22c-9-8-22-7-30 2-7 9-6 22 3 30l49 43c5 4 12 6 19 4 7-2 12-7 14-13l78-213c0-1 0-2 0-4 1-1 1-2 1-3z m-471 149l0-127 141 0 56 57c8 8 22 8 30 0l56-57 146 0 0 127z"/>
<glyph glyph-name="wrench-screwdriver" unicode="&#57609;" d="M403 278c-10 0-21 2-31 5l-39-38 32-10c3-1 6-3 9-5l126-126c8-8 8-21 0-29l-63-63c-4-4-10-6-15-6-5 0-11 2-15 6l-127 126c-2 2-4 5-5 8l-10 31-40-39c14-34 5-70-25-100-20-20-49-32-81-32-13 0-26 2-37 6-7 2-13 8-14 15-2 7 0 14 5 19l35 35-16 16c-1 1-1 2-2 2l-14 15-35-35c-6-5-13-7-20-6-7 2-13 7-15 14-14 41-3 90 26 117 30 29 68 38 101 25l59 58-74 74-35 0c-6 0-11 2-15 6l-62 61c-8 8-8 21 0 29l42 44c4 4 9 6 15 6 5 1 11-2 15-6l63-63c4-4 6-9 6-14l0-34 75-73 59 58c-13 36-5 71 25 101 20 20 50 31 81 31 13 0 26-2 38-6 7-2 12-8 14-15 1-7-1-14-6-19l-35-35 14-14c2-1 4-3 6-6l13-12 35 34c5 5 12 8 20 6 7-2 12-7 15-14 13-41 2-89-26-117-21-21-46-31-72-31z m-89-114l108-107 33 33-108 107-46 15-3-3z m-209 251l-42 41-13-13 41-40 14 0z m340-60c-7-8-21-8-29 0l-32 31c0 1-1 2-1 2l-30 29c-4 4-6 10-6 15 0 6 2 11 6 15l17 17c-13-3-25-9-34-18-21-21-24-40-11-65 5-8 3-18-3-25l-169-167c-7-7-18-8-27-3-20 13-44 9-65-12-9-8-15-20-17-33l17 17c8 8 22 8 30 0l31-31c1-1 1-1 2-2l29-29c8-8 8-21 0-30l-17-16c14 2 26 8 34 17 14 14 28 37 11 65-5 8-4 18 3 25l168 166c7 6 17 8 25 3 23-12 47-8 68 13 9 9 15 21 18 33z"/>
<glyph glyph-name="basketball" unicode="&#57611;" d="M256 0c-141 0-256 115-256 256 0 141 115 256 256 256 141 0 256-115 256-256 0-141-115-256-256-256z m-171 129c24 31 38 68 42 106l-83 0c4-40 19-76 41-106z m42 148c-4 38-18 75-42 106-22-30-37-66-41-106z m108 191c-46-4-88-24-120-53 32-40 50-88 55-138l65 0z m0-233l-65 0c-5-50-23-98-55-138 32-29 74-49 120-53z m233 0l-83 0c4-38 18-75 42-106 22 30 37 66 41 106z m-191-191c46 4 88 24 120 53-32 40-50 88-55 138l-65 0z m0 424l0-191 65 0c5 50 23 98 55 138-32 29-74 49-120 53z m150-85c-24-31-38-68-42-106l83 0c-4 40-19 76-41 106z"/>
<glyph glyph-name="binoculars" unicode="&#57612;" d="M405 32c-56 0-101 43-105 98-1 1-1 2-1 4l0 3c0 1 0 1 0 2 0 0 0 1 0 1l0 66c0 3 1 17 0 18l-86 0c0-1 0-15 0-18l0-66c0 0 0-1 0-1 0-1 0-1 0-2l0-1c0 0 0 0 0-1-2-57-49-103-106-103-59 0-107 48-107 107 0 8 1 16 3 23l40 253c0 0 0 1 0 1 1 1 0 1 1 2 10 36 44 62 83 62 42 0 77-31 85-71 1-2 1-5 1-8l0-28 86 0 0 26c0 2 0 3 1 5 5 43 41 76 85 76 39 0 73-26 83-62 1-1 1-1 1-2 0 0 0-1 0-1l40-253c2-7 3-15 3-23 0-59-48-107-107-107z m-361 119c0 0 0-1 0-1-1-4-1-7-1-11 0-36 28-64 64-64 34 0 63 28 63 62l0 3c0 35-29 63-63 63-30 0-55-21-62-49z m383 255c-5 19-22 31-42 31-24 0-44-19-44-44l0-52c0-5-2-11-6-15-4-4-9 5-15 5l-128 0c-6 0-11-9-15-5-4 4-6 10-6 15l0 52c0 25-20 44-44 44-20 0-37-12-42-31l-28-173c15 7 32 12 50 12 25 0 48-9 66-23 5 21 19 45 40 45l86 0c21 0 35-24 40-45 18 14 41 23 66 23 18 0 35-5 50-12z m41-256c0 0 0 1 0 1l-1 3c-6 28-32 49-62 49-34 0-63-28-63-63l0-3c0-34 29-62 63-62 36 0 64 28 64 64 0 4 0 7-1 11z"/>
<glyph glyph-name="chess" unicode="&#57613;" d="M405 2l-298 0c-12 0-22 10-22 21l0 32c0 26 19 48 43 53l0 41c0 8 5 15 12 19 57 28 59 71 56 92-27 8-47 33-47 62 0 30 21 55 50 62-4 13-7 29-7 44 0 35 42 72 50 80 8 6 20 6 28 0 8-8 50-45 50-80 0-15-3-31-7-44 28-7 50-32 50-62 0-29-20-54-47-62-3-21-1-64 56-92 7-4 12-11 12-19l0-41c24-5 43-26 43-53l0-32c0-11-10-21-22-21z m-277 39l256 0 0 14c0 6-4 11-9 11l-13 0c-5 0-11 2-15 6-4 4-6 9-6 15l0 49c-75 44-74 116-62 150 2 9 11 14 20 14 11 0 21 10 21 22 0 11-10 21-21 21l-14 0c0 0 0 0 0 0-7 0-14 3-18 9-4 6-5 13-2 20 3 9 12 37 12 56 0 7-9 21-21 34-12-13-21-27-21-34 0-19 9-47 12-56 3-7 2-14-2-20-4-6-10-9-17-9 0 0 0 0 0 0l-15 0c-11 0-21-10-21-21 0-12 10-22 21-22 9 0 18-5 20-14 12-34 13-106-62-150l0-49c0-6-2-11-6-15-4-4-10-6-15-6l-13 0c-5 0-9-5-9-11z"/>
<glyph glyph-name="couch" unicode="&#57614;" d="M469 210l0-79c0-1 0-1 0-2 0 0 0 0 0-1 0-12-9-21-21-21l0-22c0-11-10-21-21-21-12 0-22 10-22 21l0 22-298 0 0-22c0-11-10-21-22-21-11 0-21 10-21 21l0 22c-12 0-21 9-21 21 0 1 0 1 0 1 0 1 0 1 0 2l0 79c-26 10-43 35-43 63 0 36 28 66 64 68l0 55c0 28 24 52 52 52l280 0c28 0 52-24 52-52l0-55c36-2 64-32 64-68 0-28-17-53-43-63z m-64 124l0 62c0 5-4 9-9 9l-280 0c-5 0-9-4-9-9l0-62c0-2-1-3-1-4 18-12 31-33 31-57 0 0-1 0-1-1 0 0 1 0 1 0l0-37 238 0 0 37c0 0 1 0 1 0 0 1-1 1-1 1 0 24 13 45 31 57 0 1-1 2-1 4z m39-35c-14 0-26-12-26-26 0 0 0 0 0-1 0 0 0 0 0 0l0-59c0-11-9-21-21-21l-282 0c-12 0-21 10-21 21 0 2 1 4 1 6 0 2-1 4-1 6l0 47c0 0 0 0 0 0 0 1 0 1 0 1 0 14-12 26-26 26-14 0-25-12-25-26 0-11 7-20 17-24 2-1 3-2 5-3 11-1 20-10 20-21l0-76 342 0 0 76c0 11 9 20 20 21 2 1 3 2 5 3 10 4 17 13 17 24 0 14-11 26-25 26z"/>
<glyph glyph-name="diamond" unicode="&#57615;" d="M509 340c1-5-1-11-4-15l-233-314c0 0-1 0-1 0-1-3-4-4-6-6-1 0-1 0-2-1-3-1-5-2-8-2-3 0-6 1-9 2-1 1-1 1-2 1-2 2-4 3-6 6 0 0 0 0 0 0l-234 314c-3 4-4 10-4 15 0 1 0 1 0 2 0 6 3 11 7 14l80 145c1 0 1 0 1 0 3 5 6 8 12 10 4 1 9 1 13-1l135 0c0 0 0 0 0 0 2 1 4 1 6 1 0 0 1 0 1 0 2 0 4 0 7-1l134 0c4 2 9 2 14 1 1-1 3-2 4-3 1 0 1 0 1 0 2-2 4-4 6-6 0-1 1-1 1-1l80-144c4-3 7-8 7-15 0-1 0-1 0-2z m-60-19l-78 0-58-183z m-194 132l-63-92 125 0z m0-359l72 227-145 0z m-59 44l-58 183-78 0z m-95 299l-43-76 67 0z m34 32l25-79 54 79z m160 0l54-79 25 79z m114-32l-25-76 67 0z"/>
<glyph glyph-name="gift" unicode="&#57617;" d="M511 352l0-100c0-12-9-17-20-17l-1 0 0-189c0-1 0-3 0-4 0-10 1-24-9-34-5-5-11-8-19-8l-394 0c-20 0-47 26-47 46l0 189c-12 0-21 5-21 17l0 99c0 4 2 27 35 27 3 0 5 0 7 0l1 6 60 0c-10 14-19 31-19 53 0 52 39 75 74 75 47 0 77-30 107-94 32 64 63 94 109 94 36 0 74-23 74-75 0-22-9-39-20-53l63 0c1 0-5-6-5-6 7 1 16-2 20-7 4-5 6-13 5-19z m-234-309l170 0c0 1 0 2 0 3l1 189-171 0z m-206 0l163 0 0 192-170 0 0-186c1-2 5-5 7-6z m-28 298c-2 0 1-6 0-6l0-58 191 0 0 64z m115 128c-12 0-31-4-31-32 0-30 39-51 40-51 1-1 1-1 2-2l65 0c-38 85-61 85-76 85z m206-83c0 0 41 21 41 51 0 28-19 32-31 32-14 0-39 0-78-85l65 0c1 1 2 1 3 2z m105-45l-192 0 0-64 192 0z"/>
<glyph glyph-name="volleyball" unicode="&#57621;" d="M509 252c0 0 0-1 0-2-3-138-116-250-254-250-46 0-89 12-126 34-1 0-3 1-4 2-75 45-125 127-125 220 0 102 60 190 146 231 1 1 2 1 3 2 32 14 68 23 106 23 100 0 186-58 228-142 0-1 0-1 0-1 17-34 26-73 26-113 0-1 0-2 0-4z m-268-209c97 76 109 178 109 220-36-1-62-12-74-18 0-33-10-113-98-188 20-7 41-12 63-14z m-104 36c20 16 36 32 49 47-35 22-107 79-136 185-5-18-7-36-7-55 0-74 37-139 94-177z m0 354c-22-15-41-33-56-55 10-130 96-196 129-217 21 37 24 69 24 83-26 18-87 73-97 189z m118 36c-27 0-53-5-77-14 1-26 4-47 9-66 38 17 118 45 216 19-38 38-91 61-148 61z m192-123c-113 56-209 20-245 2 18-36 40-57 53-67 19 11 58 27 112 25 0 0 1 1 1 1 3 0 6 0 9-1 26-2 55-7 88-20-3 21-10 42-18 60z m-54-85c-1-44-11-132-82-211 84 24 148 98 155 189-27 12-51 19-73 22z"/>
<glyph glyph-name="bluetooth" unicode="&#57624;" d="M415 349l-126-92 126-92c6-3 9-9 9-16 0-7-3-13-8-17l-148-125c-1 0-2-1-3-2-1 0-2-1-3-1-2-1-5-2-7-2-3 0-6 1-9 2 0 1-1 1-2 1-2 2-3 3-5 4 0 1 0 1-1 1 0 1 0 2-1 3-1 1-1 2-2 3-1 2-1 3-1 5 0 1 0 2 0 3l0 193-115-83c-4-3-8-4-12-4-7 0-13 3-18 9-6 9-4 22 5 29l123 89-123 89c-9 7-11 20-5 30 7 9 20 11 30 5l115-84 0 194c0 1 0 2 0 3 0 1 0 3 1 4 1 1 1 3 2 4 1 1 1 2 1 2 1 1 1 1 1 1 1 1 2 2 4 3 1 1 2 1 3 2 1 0 2 1 3 1 2 0 3 1 5 1 0 0 0 0 1 0 1 0 2 0 2-1 2 0 3 0 5 0 1-1 2-2 4-3 1 0 2 0 2-1l148-125c5-4 8-10 8-17 0-6-3-12-9-16z m-139-280l92 78-92 67z m0 376l0-145 92 67z"/>
<glyph glyph-name="cloud" unicode="&#57626;" d="M397 75l-290 0c-64 0-107 37-107 93 0 43 25 82 63 102 0 2 0 4 0 6 0 89 72 161 162 161 63 0 120-37 147-93 78-3 140-67 140-145 0-71-49-124-115-124z m-172 320c-66 0-120-53-120-119 0-5 1-11 2-17 1-10-5-20-15-23-29-10-49-37-49-68 0-47 49-51 64-51l290 0c36 0 72 28 72 82 0 56-46 103-103 103-2 0-4-1-6-1-10-1-19 5-23 14-16 48-62 80-112 80z"/>
<glyph glyph-name="cloud-upload" unicode="&#57627;" d="M397 96l-56 0c-11 0-21 10-21 21 0 12 10 22 21 22l56 0c36 0 72 28 72 81 0 57-46 103-103 103-2 0-4 0-6 0-10-2-19 4-23 14-16 47-62 79-112 79-66 0-120-53-120-118 0-6 1-11 2-17 1-11-5-21-15-24-29-10-49-37-49-68 0-47 49-50 64-50l64 0c11 0 21-10 21-22 0-11-10-21-21-21l-64 0c-64 0-107 37-107 93 0 44 25 83 63 102 0 2 0 4 0 7 0 88 72 161 162 161 63 0 120-37 147-94 78-3 140-67 140-145 0-71-49-124-115-124z m-220 122l64 64c2 2 4 3 7 4 2 1 5 2 8 2 0 0 0 0 0 0 3 0 6-1 8-2 3-1 5-2 7-4l64-64c8-9 8-22 0-30-4-5-10-7-15-7-5 0-11 2-15 7l-28 27 0-140c0-12-9-22-21-22-12 0-21 10-21 22l0 140-28-27c-8-9-22-9-30 0-8 8-8 21 0 30z"/>
<glyph glyph-name="database" unicode="&#57628;" d="M500 85c-6-58-129-85-244-85-115 0-238 27-244 85 0 1-1 1-1 2l0 338c0 1 1 2 1 3 6 57 129 84 244 84 115 0 238-27 244-84 0-1 1-2 1-3l0-338c0-1-1-1-1-2z m-444 4c3-12 70-44 200-44 130 0 197 32 200 44l0 57c-47-23-125-35-200-35-75 0-153 12-200 35z m0 112c3-13 70-45 200-45 130 0 197 32 200 45l0 57c-47-24-125-35-200-35-75 0-153 11-200 35z m0 111c3-13 70-45 200-45 130 0 197 33 200 45l0 57c-47-24-125-35-200-35-75 0-153 11-200 35z m200 155c-130 0-197-32-200-44l0 0c3-12 70-45 200-45 130 0 197 33 200 45l0 0c-3 12-70 44-200 44z"/>
<glyph glyph-name="internet" unicode="&#57629;" d="M256 1c-141 0-256 115-256 256 0 141 115 255 256 255 141 0 256-114 256-255 0-141-115-256-256-256z m184 149l-53 0c-11-31-26-61-46-88 42 18 76 49 99 88z m-98 0l-65 0 0-96c28 28 50 61 65 96z m21 107c0 22-3 43-8 64l-78 0 0-128 78 0c5 21 8 42 8 64z m-128-107l-65 0c15-35 37-68 65-96z m-64-88c-20 27-35 57-46 88l-53 0c23-39 57-70 99-88z m-128 195c0-22 3-44 10-64l60 0c-4 21-6 42-6 64 0 21 2 43 6 64l-60 0c-7-20-10-42-10-64z m29 106l53 0c11 32 26 62 46 89-42-18-76-50-99-89z m163 97c-28-28-50-61-65-97l65 0z m-78-139c-5-21-8-42-8-64 0-22 3-43 8-64l78 0 0 128z m120 42l65 0c-15 36-37 69-65 97z m64 89c20-27 35-57 46-89l53 0c-23 39-57 71-99 89z m118-131l-60 0c4-21 6-42 6-64 0-22-2-43-6-64l60 0c7 20 10 42 10 64 0 22-3 44-10 64z"/>
<glyph glyph-name="network" unicode="&#57631;" d="M491 0l-128 0c-12 0-22 10-22 21l0 128c0 12 10 22 22 22l42 0 0 64-298 0 0-64 42 0c12 0 22-10 22-22l0-128c0-11-10-21-22-21l-128 0c-11 0-21 10-21 21l0 128c0 12 10 22 21 22l43 0 0 85c0 12 10 21 21 21l150 0 0 64-43 0c-12 0-21 10-21 22l0 128c0 11 9 21 21 21l128 0c12 0 21-10 21-21l0-128c0-12-9-22-21-22l-43 0 0-64 150 0c11 0 21-9 21-21l0-85 43 0c11 0 21-10 21-22l0-128c0-11-10-21-21-21z m-448 128l0-85 85 0 0 85z m256 341l-86 0 0-85 86 0z m170-341l-85 0 0-85 85 0z"/>
<glyph glyph-name="signal" unicode="&#57632;" d="M480 0l-64 0c-12 0-21 10-21 21l0 470c0 11 9 21 21 21l64 0c12 0 21-10 21-21l0-470c0-11-9-21-21-21z m-21 469l-22 0 0-426 22 0z m-108-469l-63 0c-11 0-21 10-21 21l0 363c0 12 10 21 21 21l63 0c12 0 22-9 22-21l0-363c0-11-10-21-22-21z m-21 363l-20 0 0-320 20 0z m-106-363l-64 0c-12 0-21 10-21 21l0 256c0 12 9 22 21 22l64 0c12 0 21-10 21-22l0-256c0-11-9-21-21-21z m-21 256l-22 0 0-213 22 0z m-107-256l-64 0c-12 0-21 10-21 21l0 150c0 11 9 21 21 21l64 0c12 0 21-10 21-21l0-150c0-11-9-21-21-21z m-21 149l-22 0 0-106 22 0z"/>
<glyph glyph-name="server" unicode="&#57633;" d="M427 0l-342 0c-35 0-64 29-64 64l0 384c0 35 29 64 64 64l342 0c35 0 64-29 64-64l0-384c0-35-29-64-64-64z m21 448c0 12-10 21-21 21l-342 0c-11 0-21-9-21-21l0-85 380 0c1 0 3-1 4-1z m0-127c-1 0-3-1-4-1l-380 0 0-128 380 0c1 0 3-1 4-1z m0-171c-1 0-3-1-4-1l-380 0 0-85c0-12 10-21 21-21l342 0c11 0 21 9 21 21z m-341-22l42 0 0-43-42 0z m0 171l42 0 0-43-42 0z m0 149l42 0 0-43-42 0z"/>
<glyph glyph-name="usb" unicode="&#57634;" d="M405 237l-21 0 0-56c0-8-4-15-11-19l-96-56 0-81c0-12-9-21-21-21-12 0-21 9-21 21l0 35-96 56c-7 4-11 11-11 18l0 41c-25 9-43 32-43 60 0 35 29 63 64 63 36 0 64-28 64-63 0-28-18-51-42-60l0-29 64-37 0 277-22 0c-7 0-14 4-18 10-4 6-4 14-1 21l43 85c7 14 31 14 38 0l41-82c3-3 4-8 4-13 0-11-9-21-21-21 0 0 0 0 0 0l-22 0 0-230 64 37 0 44-21 0c-12 0-21 10-21 22l0 85c0 11 9 19 21 19l85 0c12 0 22-8 22-19l0-85c0-12-10-22-22-22z m-256 19c-11 0-21-10-21-21 0-10 6-17 15-20 2 1 4 1 6 1 3 0 5 0 7-1 8 3 15 10 15 20 0 11-10 21-22 21z m107 189l-8-16 16 0z m128-123l-43 0 0-42 43 0z"/>
<glyph glyph-name="wifi" unicode="&#57635;" d="M502 344c-4-4-9-6-14-6-6 0-11 2-15 6-59 60-136 93-220 93-82 0-159-32-217-91-8-8-22-8-30 0-8 8-8 22 0 30 66 67 154 104 247 104 95 0 183-37 250-106 8-8 8-21-1-30z m-248 30c74 0 144-32 193-89 8-8 7-22-2-30-9-7-22-7-30 2-40 47-99 74-161 74-61 0-120-27-161-74-4-5-10-7-16-7-5 0-9 2-13 5-9 8-10 21-2 30 48 57 119 89 192 89z m0-107c55 0 106-28 136-75 7-10 4-23-6-29-3-3-7-4-11-4-7 0-14 4-18 10-22 35-60 56-101 56-41 0-78-21-101-56-6-10-19-13-29-6-9 6-12 19-6 29 30 47 81 75 136 75z m0-107c35 0 63-29 63-64 0-35-28-64-63-64-34 0-63 29-63 64 0 35 29 64 63 64z m0-85c12 0 21 9 21 21 0 12-9 21-21 21-11 0-21-9-21-21 0-12 10-21 21-21z"/>
<glyph glyph-name="christmis-tree" unicode="&#57637;" d="M465 88c0-1 0-1 0-2 0 0 0 0 0 0 0-12-4-24-15-24l-171 0 0-43c0-11-13-16-25-16-12 0-17 5-17 16l0 43-171 0c-9 0-17 7-21 16 0 0 0 0 0 0 0 1 0 2-1 3 0 2-1 4-1 6 0 0 0 0 0 1 0 0 0 1 0 1 1 5 2 9 5 13l97 113-39 0c0 0 0 0 0 0-2 0-5 1-7 2-1 0-2 1-3 1-1 1-2 1-3 2 0 0-1 0-1 1-1 1-2 2-3 3 0 1-1 2-2 3 0 1 0 3-1 4 0 1-1 3-1 4 0 1 0 1 0 1 0 1 1 2 1 3 0 2 0 3 1 4 0 2 1 3 2 4 0 1 0 2 1 3l77 93c-1 0-3 0-5 1 0 0-1 0-2 1-1 0-1 0-2 1-1 0-1 1-2 1-1 1-2 2-3 3 0 1-1 3-2 4 0 1-1 2-1 3-1 2-1 3-1 5 0 0-1 1-1 2 0 0 1 1 1 1 0 2 0 3 1 5 0 1 1 2 1 4 1 0 1 1 1 1l84 128c4 5 10 8 17 9 1 0 1 0 2 0 1 0 2 0 3 0 6-1 12-4 16-9l85-128c0 0 0-1 0-1 1-2 2-3 2-4 0-2 1-3 1-5 0 0 0-1 0-1 0-1 0-2 0-2 0-2-1-3-1-5 0-1-1-2-2-3 0-1-1-3-2-4-1-1-2-2-3-3 0 0-1-1-1-1-1-1-2-1-2-1-1-1-2-1-3-1-1-1-3-1-4-1l77-93c7-9 6-23-3-30-4-3-9-5-14-5 0 0 0 0-1 0 0 0-1 0-1 0l-39 0 96-113c4-2 6-7 6-14z m-162 133c-1 0-1 0-1 1l-1 0c0 1 0 1 0 2-2 1-3 3-3 5-1 1-1 2-1 3 0 1-1 3-1 4 0 1 0 1 0 1 1 1 1 2 1 3 0 2 1 4 1 5 1 1 1 1 1 2 2 2 3 3 4 5 1 0 1 0 1 0 0 1 1 1 1 1 2 1 4 2 5 3 2 0 3 1 4 1 1 0 2 0 3 0l42 0-76 93c-1 1-1 2-2 3 0 1-1 2-2 3 0 2 0 3-1 5 0 1 0 2 0 3 0 0 0 0 0 0 0 2 0 3 1 5 0 1 0 2 1 3 0 2 1 3 2 4 1 1 2 2 3 3 0 0 0 1 0 1 1 0 2 1 3 1 1 1 2 2 4 2 1 1 3 1 4 1 1 0 2 1 3 1l3 0-47 70-46-70 3 0c1 0 2-1 3-1 1 0 3 0 4-1 1 0 3-1 4-2 1 0 2-1 2-1 1 0 1-1 1-1 1-1 2-2 3-3 0-1 1-2 2-4 0-1 1-2 1-3 0-2 1-3 1-5 0 0 0 0 0 0 0-1-1-2-1-3 0-2 0-3-1-5 0-1-1-2-2-3 0-1 0-2-1-3l-77-93 40 0c1 0 2 0 3 0 1 0 3 0 4-1 1-1 3-1 4-2 1-1 2-1 2-2 1 0 1 0 1 0 1-1 2-3 3-4 0-1 1-2 2-3 0-1 0-2 1-4 0-1 1-2 1-4 0 0 0 0 0-1 0-1-1-2-1-3 0-1 0-3-1-4 0-2-1-3-2-4 0-1-1-2-1-3l-101-117 296 0z"/>
<glyph glyph-name="emoticon-grin" unicode="&#57639;" d="M256 0c-141 0-256 115-256 256 0 141 115 256 256 256 141 0 256-115 256-256 0-141-115-256-256-256z m0 469c-118 0-213-95-213-213 0-118 95-213 213-213 118 0 213 95 213 213 0 118-95 213-213 213z m0-384c-62 0-119 38-147 98-3 6-3 14 1 20 4 7 11 10 18 10l256 0c7 0 14-3 18-10 4-6 4-13 1-20-28-60-85-98-147-98z m-89 86c23-27 55-43 89-43 34 0 66 16 89 43z m174 85c-23 0-42 19-42 43 0 23 19 42 42 42 24 0 43-19 43-42 0-24-19-43-43-43z m-170 0c-24 0-43 19-43 43 0 23 19 42 43 42 23 0 42-19 42-42 0-24-19-43-42-43z"/>
<glyph glyph-name="emoticon-smile" unicode="&#57640;" d="M256 0c-141 0-256 115-256 256 0 141 115 256 256 256 141 0 256-115 256-256 0-141-115-256-256-256z m0 469c-118 0-213-95-213-213 0-118 95-213 213-213 118 0 213 95 213 213 0 118-95 213-213 213z m0-384c-62 0-119 38-147 98-5 10-1 23 10 28 10 5 23 1 28-10 22-45 63-73 109-73 46 0 87 28 109 73 5 11 17 15 28 10 11-5 15-17 10-28-28-60-85-98-147-98z m85 171c-23 0-42 19-42 43 0 23 19 42 42 42 24 0 43-19 43-42 0-24-19-43-43-43z m-170 0c-24 0-43 19-43 43 0 23 19 42 43 42 23 0 42-19 42-42 0-24-19-43-42-43z"/>
<glyph glyph-name="fire" unicode="&#57641;" d="M256 1c-116 0-213 98-213 213 0 65 34 116 36 118 4 7 13 11 22 9 8-2 15-8 16-17 1-1 6-29 31-51 0 66 18 193 144 238 7 2 15 0 21-5 6-5 8-14 6-21 0-2-28-98 12-149 10 27 30 65 62 87 6 4 14 5 20 2 7-3 12-8 13-15 7-31 14-51 21-71 12-33 22-62 22-125 0-115-97-213-213-213z m-161 268c-5-15-10-34-10-55 0-92 78-170 171-170 93 0 171 78 171 170 0 56-9 80-20 111-4 11-9 24-13 39-19-25-29-56-32-70-1-6-6-12-12-14-6-3-13-3-19 1-67 38-68 120-62 171-97-65-77-212-77-214 1-7-2-15-8-19-6-5-14-6-21-4-33 12-55 34-68 54z"/>
<glyph glyph-name="house-search" unicode="&#57642;" d="M501 221c-4-4-9-6-14-6-6 0-12 3-16 7l-5 6 0-98c0-12-10-21-21-21-12 0-18 8-18 20l0 141-173 190-169-185 1-232 256 0c12 0 18-7 18-19 0-12-9-21-21-21l-254 0c-23 0-42 19-42 42l0 183-6-6c-8-8-21-9-30-1-8 8-9 21-1 30l233 255c8 9 23 9 31 0l233-255c7-9 7-22-2-30z m-226-133c-58 0-105 47-105 106 0 59 47 106 105 106 59 0 106-47 106-106 0-22-6-42-17-59l96-96c8-8 8-22 0-30-5-4-10-6-15-6-6 0-11 2-15 6l-96 96c-17-11-37-17-59-17z m0 170c-35 0-63-29-63-64 0-35 28-64 63-64 35 0 64 29 64 64 0 35-29 64-64 64z"/>
<glyph glyph-name="recycle" unicode="&#57644;" d="M506 64c-4-6-11-10-19-10l-160 0 6-7c8-8 8-22 0-30-4-4-10-6-15-6-5 0-11 2-15 6l-39 40c-5 4-9 10-9 18 0 0 0 0 0 1 0 0-1 0-1 1 1 5 3 11 7 15l42 41c9 8 22 8 30-1 8-8 8-21 0-30l-6-6 124 0-67 117c-6 11-2 24 8 30 10 5 23 2 29-8l85-149c4-7 4-15 0-22z m-125 218c-1-5-5-10-10-12-3-2-7-3-10-3 0 0 0 0 0 0 0 0 0 0 0 0-2 0-4 0-6 1l-57 16c-11 3-18 15-14 26 3 11 14 18 26 15l7-2-64 114-64-116c-6-10-19-14-29-8-11 6-14 19-8 29l83 149c4 6 11 10 19 10 0 0 0 0 0 0 7 0 14-4 18-10l82-147 3 9c3 11 15 18 26 15 11-3 18-15 14-27z m-234-92c-2-1-4-1-5-1-10 0-19 6-21 16l-1 5-63-114 155 0c12 0 21-9 21-21 0-12-9-21-21-21l-190 0c-10 0-18 7-21 16 0 0 0 1 0 1 0 2-1 3-1 4 0 0 1 1 1 1 0 4 0 7 2 11l82 148-11-2c-12-3-23 4-26 15-3 12 4 23 15 26l58 15c1 0 1 0 1 0l0 0c1 0 2 0 3 0 2 0 3 0 5 0 2 0 4-1 5-1 1-1 2-1 3-1 0 0 0 0 0 0 0-1 0-1 0-1 2-1 4-2 5-4 1 0 1-1 1-1 2-2 3-4 3-6 1-1 1-1 1-1 0 0 0-1 0-1l14-58c3-11-4-23-15-25z"/>
<glyph glyph-name="sun" unicode="&#57646;" d="M491 235l-86 0c-11 0-21 9-21 21 0 12 10 21 21 21l86 0c11 0 21-9 21-21 0-12-10-21-21-21z m-113 123c-4-4-10-6-15-6-6 0-11 2-15 6-9 9-9 22 0 30l64 64c8 9 21 9 30 0 8-8 8-21 0-30z m-122-209c-59 0-107 48-107 107 0 59 48 107 107 107 59 0 107-48 107-107 0-59-48-107-107-107z m0 171c-35 0-64-29-64-64 0-35 29-64 64-64 35 0 64 29 64 64 0 35-29 64-64 64z m0 64c-12 0-21 10-21 21l0 86c0 11 9 21 21 21 12 0 21-10 21-21l0-86c0-11-9-21-21-21z m-107-32c-5 0-11 2-15 6l-64 64c-8 9-8 22 0 30 9 9 22 9 30 0l64-64c9-8 9-21 0-30-4-4-9-6-15-6z m-21-96c0-12-10-21-21-21l-86 0c-11 0-21 9-21 21 0 12 10 21 21 21l86 0c11 0 21-9 21-21z m6-81c9 8 22 8 30 0 9-8 9-22 0-30l-64-64c-4-4-9-6-15-6-5 0-11 2-15 6-8 8-8 22 0 30z m122-47c12 0 21-10 21-21l0-86c0-11-9-21-21-21-12 0-21 10-21 21l0 86c0 11 9 21 21 21z m122 47l64-64c8-8 8-22 0-30-4-4-10-6-15-6-6 0-11 2-15 6l-64 64c-9 8-9 22 0 30 8 8 21 8 30 0z"/>
<glyph glyph-name="apple" unicode="&#57657;" d="M350 3c-46 0-64 7-80 16-6 4-7 5-14 5-7 0-8-1-14-5-16-9-34-16-80-16-94 0-162 174-162 265 0 105 59 180 141 180 32 0 53-13 69-24 8-6 16-10 24-14-5 50-28 61-29 61-10 5-15 17-11 28 4 10 16 16 27 12 5-2 49-21 56-101 8 3 16 8 25 14 16 11 37 24 69 24 82 0 141-75 141-180 0-91-68-265-162-265z m21 403c-19 0-31-8-45-18-17-11-38-24-70-24-32 0-53 13-70 24-14 10-26 18-45 18-58 0-98-57-98-138 0-86 65-223 119-223 39 0 49 6 58 11 8 5 18 10 36 10 18 0 28-5 36-10 9-5 19-11 58-11 54 0 119 137 119 223 0 81-40 138-98 138z"/>
<glyph glyph-name="coffee-cup" unicode="&#57658;" d="M427 235l-22 0c0 0 0 0-1 0-10-96-92-171-191-171-106 0-192 86-192 192 0 2 1 3 1 5 0 1-1 3-1 4l0 55c0 24 19 43 43 43l363 0c35 0 64-29 64-64 0-36-29-64-64-64z m-64 30l0 55-299 0 0-55c0-1-1-3-1-4 0-2 1-3 1-5 0-82 67-149 149-149 83 0 150 67 150 149 0 2 0 3 1 5-1 1-1 3-1 4z m64 55l-22 0 0-43 22 0c11 0 21 10 21 22 0 11-10 21-21 21z m-107 64c-12 0-21 10-21 21l0 86c0 11 9 21 21 21 12 0 21-10 21-21l0-86c0-11-9-21-21-21z m-107 0c-11 0-21 10-21 21l0 86c0 11 10 21 21 21 12 0 22-10 22-21l0-86c0-11-10-21-22-21z m-106 0c-12 0-22 10-22 21l0 86c0 11 10 21 22 21 11 0 21-10 21-21l0-86c0-11-10-21-21-21z m-64-341l341 0c12 0 21-10 21-22 0-11-9-21-21-21l-341 0c-12 0-22 10-22 21 0 12 10 22 22 22z"/>
<glyph glyph-name="coffee-mug" unicode="&#57659;" d="M405 85l-23 0c-10-48-53-85-105-85l-170 0c-59 0-107 48-107 107l0 213c0 24 19 43 43 43l298 0c24 0 43-19 43-43l0-21 21 0c59 0 107-48 107-107 0-59-48-107-107-107z m-64 180l0 55-298 0 0-213c0-36 28-64 64-64l170 0c36 0 64 28 64 64z m64-9l-21 0 0-128 21 0c36 0 64 29 64 64 0 35-28 64-64 64z m-106 128c-12 0-22 10-22 21l0 86c0 11 10 21 22 21 11 0 21-10 21-21l0-86c0-11-10-21-21-21z m-107 0c-12 0-21 10-21 21l0 86c0 11 9 21 21 21 12 0 21-10 21-21l0-86c0-11-9-21-21-21z m-107 0c-11 0-21 10-21 21l0 86c0 11 10 21 21 21 12 0 22-10 22-21l0-86c0-11-10-21-22-21z"/>
<glyph glyph-name="write-check" unicode="&#57670;" d="M469 22l-426 0c-21 0-43 21-43 41l0 307c0 20 17 36 37 36l70 0c11 0 21-9 21-21 0-11-10-21-21-21l-64 0 0-299 426 0 0 299-106 0c-12 0-22 10-22 21 0 12 10 21 22 21l112 0c20 0 37-16 37-36l0-307c0-20-22-41-43-41z m-42 173l-192 0c-12 0-22 10-22 21 0 12 10 19 22 19l192 0c11 0 21-7 21-19 0-11-10-21-21-21z m0-63l-342 0c-11 0-21 9-21 21 0 12 10 18 21 18l342 0c11 0 21-6 21-18 0-12-10-21-21-21z m-102 268c0 0 0 0-1-1l-153-151c0-1 0-1 0-1-1 0-2-1-3-1-1-1-3-3-5-3 0 0 0 0 0 0l-70-25c-3-1-5-2-8-2-5 0-11 2-15 6-6 6-8 15-5 23l26 69c0 1 0 1 0 1 0 1 1 2 1 2 1 2 2 4 3 5 1 0 1 0 1 0l153 152c0 0 1 0 1 1 0 0 0 0 0 0 21 21 55 21 76 0 10-10 15-23 15-37 0-14-5-27-15-37 0-1-1-1-1-1z m-29 46c-5 4-11 4-16 0 0-1 0-1 0-1 0 0-1-1-1-1l-150-148-8-24 23 9 150 148c1 1 1 1 1 1 0 0 0 0 1 1 2 2 3 5 3 7 0 2-1 5-3 8z"/>
<glyph glyph-name="credit-card" unicode="&#57671;" d="M448 85l-384 0c-35 0-64 29-64 64l0 214c0 35 29 64 64 64l384 0c35 0 64-29 64-64l0-214c0-35-29-64-64-64z m-384 43l384 0c12 0 21 10 21 21l0 128-426 0 0-128c0-11 9-21 21-21z m405 235c0 11-9 21-21 21l-384 0c-12 0-21-10-21-21l0-22 426 0z"/>
<glyph glyph-name="graph-down" unicode="&#57674;" d="M491 85l-470 0c-11 0-21 10-21 22l0 298c0 12 10 22 21 22 12 0 22-10 22-22l0-277 448 0c11 0 21-10 21-21 0-12-10-22-21-22z m-44 122c-2-9-9-15-18-15l-64 0c-12 0-22 10-22 21 0 12 10 22 22 22l4 0-91 77-50-50c-7-7-20-8-28-1l-107 85c-9 7-10 21-3 30 7 9 21 11 30 3l92-73 50 50c8 8 21 9 29 2l116-100 0 19c0 12 10 22 22 22 12 0 19-10 19-22l0-64c0-2 0-3-1-5 0-1 0-1 0-1z"/>
<glyph glyph-name="graph-up" unicode="&#57675;" d="M491 85l-470 0c-11 0-21 10-21 22l0 298c0 12 10 22 21 22 12 0 22-10 22-22l0-277 448 0c11 0 21-10 21-21 0-12-10-22-21-22z m-62 192c-12 0-22 10-22 22l0 19-116-100c-8-7-21-6-29 2l-50 50-92-73c-4-3-9-5-13-5-7 0-13 3-17 8-7 9-6 23 3 30l107 85c8 7 21 6 28-1l50-50 91 77-4 0c-12 0-22 10-22 22 0 11 10 21 22 21l64 0c9 0 16-6 18-15 0 0 0 0 0-1 1-2 1-3 1-5l0-64c0-12-7-22-19-22z"/>
<glyph glyph-name="atm" unicode="&#57676;" d="M475 277l-6 0c-11 0-21 10-21 22 0 11 10 21 21 21l0 85-426 0 0-85c11 0 21-10 21-21 0-12-10-22-21-22l-6 0c-20 0-37 16-37 36l0 99c0 20 17 36 37 36l438 0c20 0 37-16 37-36l0-99c0-20-17-36-37-36z m-359 86l280 0c10 0 20-8 21-19l30-252c1-2 1-4 1-7 0-11-9-21-21-21 0 0 0 0 0 0l-342 0c-6 0-12 3-16 7-4 5-6 11-5 17l31 256c1 11 11 19 21 19z m287-256l-26 213-242 0-26-213z"/>
<glyph glyph-name="balance" unicode="&#57677;" d="M405 128c-58 0-106 48-106 107 0 11 9 21 21 21l6 0 54 149-103 0 0-341 64 0c12 0 22-10 22-21 0-12-10-22-22-22l-170 0c-12 0-22 10-22 22 0 11 10 21 22 21l64 0 0 341-103 0 54-149 6 0c12 0 21-10 21-21 0-59-48-107-106-107-59 0-107 48-107 107 0 11 10 21 21 21l7 0 53 149-38 0c-12 0-22 10-22 22 0 11 10 21 22 21l192 0 0 21c0 12 9 22 21 22 12 0 21-10 21-22l0-21 192 0c12 0 22-10 22-21 0-12-10-22-22-22l-38 0 53-149 7 0c11 0 21-10 21-21 0-59-48-107-107-107z m-298 43c27 0 51 17 60 42l-121 0c9-25 33-42 61-42z m-34 85l67 0-33 94z m332 94l-33-94 67 0z m-60-137c9-25 33-42 60-42 28 0 52 17 61 42z"/>
<glyph glyph-name="networking" unicode="&#57679;" d="M448 0c-35 0-64 29-64 64 0 10 3 19 7 28l-108 106c-8-4-17-6-27-6-16 0-31 6-42 16l-87-48c1-4 1-7 1-11 0-35-29-64-64-64-35 0-64 29-64 64 0 36 29 64 64 64 16 0 31-6 42-16l87 48c-1 4-1 7-1 11 0 35 29 64 64 64 1 0 3 0 4 0l37 82c-12 12-20 28-20 46 0 35 29 64 64 64 36 0 64-29 64-64 0-35-28-64-64-64-1 0-3 0-5 1l-37-82c13-12 21-28 21-47 0-10-2-19-6-27l107-107c8 4 17 6 27 6 35 0 64-29 64-64 0-35-29-64-64-64z m-384 171c-12 0-21-10-21-22 0-11 9-21 21-21 12 0 21 10 21 21 0 12-9 22-21 22z m299 277c0 12-10 21-22 21-11 0-21-9-21-21 0-12 10-21 21-21 12 0 22 9 22 21z m-128-192c0-12 9-21 21-21 12 0 21 9 21 21 0 12-9 21-21 21-12 0-21-9-21-21z m213-171c-12 0-21-9-21-21 0-12 9-21 21-21 12 0 21 9 21 21 0 12-9 21-21 21z"/>
<glyph glyph-name="bank" unicode="&#57680;" d="M490 278c0 0-1 0-1 0l-64 0 0-170 64 0c12 0 21-9 21-21l0-64c0-12-9-21-21-21l-467 0c-12 0-22 9-22 21l0 64c0 12 10 21 22 21l63 0 0 170-63 0c-9 0-17 6-20 14-3 9-1 18 6 24l234 191c8 7 19 7 27 0l231-189c7-4 11-11 11-19 0-11-10-21-21-21z m-213-170l106 0 0 170-106 0z m-234-64l425 0 0 21-425 0z m191 64l0 170-107 0 0-170z m22 355l-175-142 349 0z"/>
<glyph glyph-name="notes" unicode="&#57681;" d="M491 137c-12 0-22 10-22 22l0 236-385 0c-12 0-21 9-21 21 0 12 9 21 21 21l407 0c11 0 21-9 21-21l0-257c0-12-10-22-21-22z m-42 215l0-256c0-12-9-21-21-21l-407 0c-11 0-21 9-21 21l0 256c0 12 10 21 21 21l407 0c12 0 21-9 21-21z m-42-21l-364 0 0-214 364 0z m-322-150l22 0c11 0 21-9 21-21 0-12-10-21-21-21l-22 0c-11 0-21 9-21 21 0 12 10 21 21 21z m139 128c41 0 75-38 75-85 0-47-35-86-76-86-41 0-74 39-74 86 0 47 34 85 75 85z m-1-128c16 0 33 17 33 43 0 23-15 42-32 42-18 0-32-19-32-42 0-23 14-43 31-43z m118 128l22 0c11 0 21-9 21-21 0-12-10-21-21-21l-22 0c-11 0-21 9-21 21 0 12 10 21 21 21z"/>
</font>
</defs>
</svg>
